<svg width="74" height="74" viewBox="0 0 74 74" fill="none" xmlns="http://www.w3.org/2000/svg">
<g opacity="0.5">
<path d="M37 1.99032C56.3021 1.99032 72.0097 17.6939 72.0097 37C72.0097 56.3061 56.3061 72.0097 37 72.0097C17.6939 72.0097 1.99032 56.3021 1.99032 37C1.99032 17.6979 17.6939 1.99032 37 1.99032ZM37 0C16.5634 0 0 16.5634 0 37C0 57.4366 16.5634 74 37 74C57.4366 74 74 57.4366 74 37C74 16.5634 57.4326 0 37 0Z" fill="#D1ECF2"/>
</g>
<path d="M36.9999 70.6364C55.5767 70.6364 70.6363 55.5769 70.6363 37C70.6363 18.4232 55.5767 3.36365 36.9999 3.36365C18.423 3.36365 3.36353 18.4232 3.36353 37C3.36353 55.5769 18.423 70.6364 36.9999 70.6364Z" fill="#9CD8EA"/>
<g style="mix-blend-mode:overlay" opacity="0.07">
<path d="M6.40473 40.0413C6.40473 21.4636 21.4635 6.4049 40.0411 6.4049C48.5557 6.4049 56.3299 9.56951 62.257 14.7881C56.091 7.78618 47.0629 3.36768 37.0039 3.36768C18.4223 3.3637 3.36353 18.4224 3.36353 37.0001C3.36353 47.0631 7.78203 56.0912 14.784 62.2532C9.56933 56.326 6.40075 48.5519 6.40075 40.0373L6.40473 40.0413Z" fill="black"/>
</g>
<mask id="mask0_251_301" style="mask-type:luminance" maskUnits="userSpaceOnUse" x="3" y="3" width="68" height="68">
<path d="M36.9999 70.6364C55.5767 70.6364 70.6363 55.5769 70.6363 37C70.6363 18.4232 55.5767 3.36365 36.9999 3.36365C18.423 3.36365 3.36353 18.4232 3.36353 37C3.36353 55.5769 18.423 70.6364 36.9999 70.6364Z" fill="white"/>
</mask>
<g mask="url(#mask0_251_301)">
<path d="M28.2385 30.1335C28.7401 32.1875 27.9161 34.1698 26.3915 34.5599C24.8669 34.95 23.2269 33.6006 22.7213 31.5466C22.2198 29.4926 23.0438 27.5102 24.5684 27.1201C26.0929 26.73 27.733 28.0795 28.2385 30.1335Z" fill="white"/>
<path d="M47.3932 30.1335C46.8917 32.1875 47.7156 34.1698 49.2402 34.5599C50.7648 34.95 52.4048 33.6006 52.9104 31.5466C53.4119 29.4926 52.5879 27.5102 51.0634 27.1201C49.5388 26.73 47.8988 28.0795 47.3932 30.1335Z" fill="#F4F1EF"/>
<g style="mix-blend-mode:overlay" opacity="0.5">
<path d="M48.6154 53.7028C48.4522 53.659 48.293 53.6073 48.1338 53.5555C45.1921 52.5604 43.1222 49.8734 42.943 46.7407L42.8276 44.7026C42.8555 44.6787 42.8833 44.6548 42.9112 44.6309C42.9749 44.5752 43.0386 44.5235 43.1023 44.4677C43.2456 44.3443 43.3849 44.217 43.5242 44.0816C43.5919 44.0179 43.6595 43.9542 43.7232 43.8866C43.8267 43.7831 43.9342 43.6796 44.0377 43.5721C44.1094 43.4965 44.185 43.4208 44.2566 43.3412C44.3442 43.2457 44.4358 43.1501 44.5233 43.0506C44.6069 42.9551 44.6945 42.8635 44.7781 42.764C44.8975 42.6247 45.0169 42.4854 45.1364 42.3421C45.216 42.2426 45.2956 42.143 45.3752 42.0435C45.4429 41.956 45.5105 41.8724 45.5782 41.7808C45.6618 41.6733 45.7454 41.5659 45.825 41.4544C45.8847 41.3748 45.9404 41.2952 46.0002 41.2156C46.1514 41.0046 46.2987 40.7936 46.446 40.5747C46.4938 40.503 46.5455 40.4274 46.5933 40.3518C46.6808 40.2204 46.7684 40.0851 46.852 39.9497C46.8918 39.882 46.9356 39.8184 46.9754 39.7507C47.1625 39.4482 47.3456 39.1416 47.5247 38.8312C47.5327 38.8192 47.5407 38.8073 47.5446 38.7953C47.6322 38.6401 47.7198 38.4809 47.8074 38.3216C47.8392 38.2659 47.8711 38.2062 47.8989 38.1465C48.1736 37.633 48.4323 37.1075 48.6751 36.5702C48.695 36.5264 48.7149 36.4826 48.7349 36.4388C48.8145 36.2636 48.8901 36.0885 48.9657 35.9094C48.9817 35.8735 48.9976 35.8337 49.0135 35.7979C49.1807 35.4038 49.3399 35.0058 49.4872 34.6037C50.9322 34.7868 52.4169 33.4772 52.8946 31.5426C53.3962 29.4886 52.5722 27.5102 51.0516 27.1161C51.0516 27.1002 51.0516 27.0843 51.0516 27.0724C52.1463 20.3331 50.6854 15.6002 48.9976 13.8129C47.3058 12.0216 42.8276 11.5917 42.8276 11.5917C41.3349 10.9627 42.2305 9.93175 42.2305 9.93175C40.8373 9.33465 38.9465 10.5288 38.9465 10.5288C38.632 10.2383 38.23 9.97155 37.8 9.73669V71.8943H58.0854L59.7453 63.0095C60.3822 59.6061 58.2884 56.2862 54.9446 55.3946L48.6035 53.7028H48.6154Z" fill="#51504F"/>
</g>
<path d="M48.6155 53.7027C45.419 52.8509 43.1341 50.0405 42.947 46.7366L42.3261 35.8058H32.1635L31.5146 47.1944C31.3236 50.5302 28.9949 53.3564 25.7547 54.1804L20.8505 55.4263C17.4152 56.2981 15.2498 59.6896 15.8986 63.1727L17.5267 71.8942H58.0973L59.7413 63.097C60.3862 59.6458 58.2645 56.2782 54.869 55.3706L48.6115 53.6987L48.6155 53.7027Z" fill="#F4F1EF"/>
<path d="M51.0835 26.4514C51.0835 35.7581 43.9064 46.884 37.816 46.884C31.7257 46.884 24.5486 35.7581 24.5486 26.4514C24.5486 17.1447 30.4877 11.5917 37.816 11.5917C45.1444 11.5917 51.0835 17.1447 51.0835 26.4514Z" fill="white"/>
<path d="M26.1448 34.6594C28.6048 41.2593 33.4811 46.8879 37.816 46.8879C42.1509 46.8879 47.0272 41.2593 49.4872 34.6594C49.4872 34.6594 42.5768 42.1788 37.816 42.1788C33.0552 42.1788 26.1448 34.6594 26.1448 34.6594Z" fill="#51504F"/>
<path d="M48.6155 53.7028C48.4522 53.6591 48.293 53.6073 48.1338 53.5555C46.3783 57.9741 42.4176 61.0551 37.812 61.0551C33.2064 61.0551 29.2258 57.9542 27.4783 53.5157C26.9409 53.8024 26.3637 54.0292 25.7547 54.1845L20.8505 55.4304C17.4152 56.3022 15.2498 59.6937 15.8986 63.1767L17.5267 71.8983H58.0973L59.7413 63.1011C60.3862 59.6499 58.2645 56.2823 54.869 55.3747L48.6115 53.7028H48.6155Z" fill="#57758E"/>
<path d="M24.5685 27.1161C24.5685 27.1161 24.3934 19.9828 22.5742 16.6988H24.5486C24.5486 16.6988 24.5327 14.4099 25.4801 12.2206C25.4801 12.2206 25.9299 13.3153 27.5221 13.4148C27.5221 13.4148 26.6265 9.33462 23.7405 9.33462C23.7405 9.33462 29.0149 6.74721 35.6824 10.5288C35.6824 10.5288 35.4834 9.19928 34.4883 8.47083C34.4883 8.47083 37.5733 9.23511 38.9665 10.5288C38.9665 10.5288 40.8573 9.33462 42.2505 9.93172C42.2505 9.93172 41.3549 10.9587 42.8476 11.5916C42.8476 11.5916 47.3258 12.0216 49.0176 13.8128C50.7093 15.6041 52.1742 20.353 51.0676 27.1161C51.0676 27.1161 50.2476 27.0484 49.4873 28.3103C48.9181 23.2668 45.5345 18.5896 45.5345 18.5896C45.5345 18.5896 44.2408 16.4002 41.4544 17.7935C40.4473 18.295 38.3614 18.7886 37.0239 18.6891C35.6825 18.5896 31.1804 18.0243 29.7632 19.0872C27.8525 20.5202 26.8932 23.9316 26.1488 28.3103C25.8981 27.0484 24.5685 27.1161 24.5685 27.1161Z" fill="#51504F"/>
<path d="M33.0551 42.979C33.0551 40.3717 32.4779 37.0279 34.6434 35.0933C37.8478 32.2233 42.4494 34.8107 42.5728 38.7993C42.6166 40.1886 42.5728 41.5897 42.5728 42.979" stroke="#51504F" stroke-width="6" stroke-miterlimit="10"/>
</g>
</svg>
