<svg width="55" height="55" viewBox="0 0 55 55" fill="none" xmlns="http://www.w3.org/2000/svg">
<path d="M32.6516 17.0855C32.6516 16.3947 32.9226 15.7322 33.4048 15.2437C33.887 14.7553 34.5411 14.4809 35.2231 14.4809H52.3658C53.0478 14.4809 53.7019 14.7553 54.1841 15.2437C54.6663 15.7322 54.9373 16.3947 54.9373 17.0855C54.9373 17.7763 54.6663 18.4388 54.1841 18.9272C53.7019 19.4157 53.0478 19.6901 52.3658 19.6901H35.2231C34.5411 19.6901 33.887 19.4157 33.4048 18.9272C32.9226 18.4388 32.6516 17.7763 32.6516 17.0855ZM52.3658 24.8993H35.2231C34.5411 24.8993 33.887 25.1737 33.4048 25.6622C32.9226 26.1506 32.6516 26.8131 32.6516 27.5039C32.6516 28.1947 32.9226 28.8572 33.4048 29.3457C33.887 29.8341 34.5411 30.1085 35.2231 30.1085H52.3658C53.0478 30.1085 53.7019 29.8341 54.1841 29.3457C54.6663 28.8572 54.9373 28.1947 54.9373 27.5039C54.9373 26.8131 54.6663 26.1506 54.1841 25.6622C53.7019 25.1737 53.0478 24.8993 52.3658 24.8993ZM52.3658 35.3177H40.3659C39.6839 35.3177 39.0299 35.5922 38.5476 36.0806C38.0654 36.5691 37.7945 37.2316 37.7945 37.9224C37.7945 38.6131 38.0654 39.2756 38.5476 39.7641C39.0299 40.2526 39.6839 40.527 40.3659 40.527H52.3658C53.0478 40.527 53.7019 40.2526 54.1841 39.7641C54.6663 39.2756 54.9373 38.6131 54.9373 37.9224C54.9373 37.2316 54.6663 36.5691 54.1841 36.0806C53.7019 35.5922 53.0478 35.3177 52.3658 35.3177ZM33.4273 40.744C33.5118 41.0752 33.531 41.42 33.4838 41.7588C33.4367 42.0975 33.3241 42.4235 33.1526 42.7182C32.9811 43.0128 32.7539 43.2704 32.4842 43.4761C32.2144 43.6819 31.9072 43.8318 31.5802 43.9173C31.2532 44.0028 30.9128 44.0222 30.5784 43.9745C30.244 43.9268 29.9221 43.8128 29.6312 43.639C29.3403 43.4653 29.086 43.2352 28.8829 42.9619C28.6798 42.6887 28.5318 42.3775 28.4474 42.0463C27.2217 37.2213 22.396 33.5813 17.2231 33.5813C12.0503 33.5813 7.22459 37.2191 5.99888 42.0463C5.91446 42.3775 5.76646 42.6887 5.56333 42.9619C5.3602 43.2352 5.10593 43.4653 4.81501 43.639C4.5241 43.8128 4.20226 43.9268 3.86785 43.9745C3.53344 44.0222 3.19303 44.0028 2.86604 43.9173C2.53905 43.8318 2.23189 43.6819 1.96209 43.4761C1.6923 43.2704 1.46516 43.0128 1.29364 42.7182C1.12211 42.4235 1.00957 42.0975 0.962431 41.7588C0.915292 41.42 0.934481 41.0752 1.0189 40.744C2.17175 36.2077 5.32389 32.4614 9.39958 30.3256C7.82495 28.7538 6.74752 26.743 6.30435 24.5492C5.86117 22.3553 6.0723 20.0775 6.91086 18.0055C7.74942 15.9336 9.17751 14.1611 11.0135 12.9136C12.8494 11.6661 15.0102 11 17.221 11C19.4318 11 21.5926 11.6661 23.4285 12.9136C25.2644 14.1611 26.6925 15.9336 27.5311 18.0055C28.3697 20.0775 28.5808 22.3553 28.1376 24.5492C27.6944 26.743 26.617 28.7538 25.0424 30.3256C29.1224 32.4635 32.2745 36.2098 33.4273 40.744ZM17.2231 28.3721C18.4098 28.3721 19.5698 28.0157 20.5565 27.3479C21.5432 26.6801 22.3123 25.7309 22.7664 24.6204C23.2205 23.5099 23.3393 22.288 23.1078 21.1091C22.8763 19.9302 22.3049 18.8473 21.4657 17.9973C20.6266 17.1474 19.5575 16.5686 18.3937 16.3341C17.2298 16.0996 16.0234 16.2199 14.927 16.6799C13.8307 17.1399 12.8936 17.9188 12.2343 18.9183C11.575 19.9177 11.2231 21.0927 11.2231 22.2947C11.2231 23.0928 11.3783 23.8831 11.6799 24.6204C11.9814 25.3578 12.4234 26.0277 12.9805 26.5921C14.1057 27.7318 15.6318 28.3721 17.2231 28.3721Z" fill="white" />
</svg>
