<svg width="54" height="54" viewBox="0 0 54 54" fill="none" xmlns="http://www.w3.org/2000/svg">
  <path d="M2.16 18.891V39.9375C2.16 42.4736 3.12718 44.9059 4.84876 46.6992C6.57034 48.4925 8.90531 49.5 11.34 49.5H27C26.2457 48.4553 25.6107 47.3227 25.1078 46.125H11.34C9.76461 46.125 8.25375 45.4731 7.13979 44.3127C6.02582 43.1523 5.4 41.5785 5.4 39.9375V18.891C4.34082 19.2034 3.21918 19.2034 2.16 18.891ZM49.68 9.5625V25.875C48.6771 25.0893 47.5898 24.4278 46.44 23.904V9.5625C46.44 7.92147 45.8142 6.34766 44.7002 5.18728C43.5863 4.0269 42.0754 3.375 40.5 3.375H11.34C10.1739 3.37464 9.03349 3.73181 8.06094 4.40199C7.08839 5.07217 6.32672 6.02572 5.87088 7.14375C4.80172 6.72469 3.63908 6.6364 2.52288 6.8895C3.07909 4.90202 4.23919 3.1561 5.82901 1.91385C7.41884 0.671596 9.3526 4.0553e-05 11.34 0H40.5C42.9347 0 45.2697 1.00747 46.9912 2.80079C48.7128 4.59411 49.68 7.02637 49.68 9.5625ZM16.74 27H28.944C27.9111 27.999 27.0071 29.1335 26.2548 30.375H16.74C16.3104 30.375 15.8983 30.1972 15.5945 29.8807C15.2907 29.5643 15.12 29.1351 15.12 28.6875C15.12 28.2399 15.2907 27.8107 15.5945 27.4943C15.8983 27.1778 16.3104 27 16.74 27ZM0 12.9375C0 13.9818 0.398249 14.9833 1.10714 15.7217C1.81602 16.4602 2.77748 16.875 3.78 16.875C4.78252 16.875 5.74398 16.4602 6.45286 15.7217C7.16175 14.9833 7.56 13.9818 7.56 12.9375C7.56 11.8932 7.16175 10.8917 6.45286 10.1533C5.74398 9.41484 4.78252 9 3.78 9C2.77748 9 1.81602 9.41484 1.10714 10.1533C0.398249 10.8917 0 11.8932 0 12.9375ZM16.74 18C16.3104 18 15.8983 18.1778 15.5945 18.4943C15.2907 18.8107 15.12 19.2399 15.12 19.6875C15.12 20.1351 15.2907 20.5643 15.5945 20.8807C15.8983 21.1972 16.3104 21.375 16.74 21.375H35.1C35.5297 21.375 35.9417 21.1972 36.2455 20.8807C36.5493 20.5643 36.72 20.1351 36.72 19.6875C36.72 19.2399 36.5493 18.8107 36.2455 18.4943C35.9417 18.1778 35.5297 18 35.1 18H16.74ZM54 39.375C54 43.2538 52.5208 46.9737 49.8878 49.7164C47.2548 52.4592 43.6836 54 39.96 54C36.2364 54 32.6652 52.4592 30.0322 49.7164C27.3992 46.9737 25.92 43.2538 25.92 39.375C25.92 35.4962 27.3992 31.7763 30.0322 29.0336C32.6652 26.2908 36.2364 24.75 39.96 24.75C43.6836 24.75 47.2548 26.2908 49.8878 29.0336C52.5208 31.7763 54 35.4962 54 39.375ZM41.04 30.375C41.04 30.0766 40.9262 29.7905 40.7237 29.5795C40.5211 29.3685 40.2464 29.25 39.96 29.25C39.6736 29.25 39.3989 29.3685 39.1963 29.5795C38.9938 29.7905 38.88 30.0766 38.88 30.375V38.25H31.32C31.0336 38.25 30.7589 38.3685 30.5563 38.5795C30.3538 38.7905 30.24 39.0766 30.24 39.375C30.24 39.6734 30.3538 39.9595 30.5563 40.1705C30.7589 40.3815 31.0336 40.5 31.32 40.5H38.88V48.375C38.88 48.6734 38.9938 48.9595 39.1963 49.1705C39.3989 49.3815 39.6736 49.5 39.96 49.5C40.2464 49.5 40.5211 49.3815 40.7237 49.1705C40.9262 48.9595 41.04 48.6734 41.04 48.375V40.5H48.6C48.8864 40.5 49.1611 40.3815 49.3637 40.1705C49.5662 39.9595 49.68 39.6734 49.68 39.375C49.68 39.0766 49.5662 38.7905 49.3637 38.5795C49.1611 38.3685 48.8864 38.25 48.6 38.25H41.04V30.375Z" fill="white"/>
</svg>
