<svg width="22" height="20" viewBox="0 0 22 20" fill="none" xmlns="http://www.w3.org/2000/svg">
<path d="M21.9924 9.75868C21.9924 10.4462 21.4194 10.9847 20.7701 10.9847H19.5479L19.5747 17.1035C19.5747 17.2066 19.567 17.3097 19.5556 17.4128V18.0278C19.5556 18.8719 18.8719 19.5556 18.0278 19.5556H17.4167C17.3747 19.5556 17.3326 19.5556 17.2906 19.5517C17.2372 19.5556 17.1837 19.5556 17.1302 19.5556H15.8889H14.9722C14.1281 19.5556 13.4444 18.8719 13.4444 18.0278V17.1111V14.6667C13.4444 13.9906 12.8983 13.4444 12.2222 13.4444H9.77778C9.10174 13.4444 8.55556 13.9906 8.55556 14.6667V17.1111V18.0278C8.55556 18.8719 7.87188 19.5556 7.02778 19.5556H6.11111H4.89271C4.83542 19.5556 4.77813 19.5517 4.72083 19.5479C4.675 19.5517 4.62917 19.5556 4.58333 19.5556H3.97222C3.12813 19.5556 2.44444 18.8719 2.44444 18.0278V13.75C2.44444 13.7156 2.44444 13.6774 2.44826 13.6431V10.9847H1.22222C0.534722 10.9847 0 10.45 0 9.75868C0 9.41493 0.114583 9.10938 0.381944 8.84201L10.175 0.305556C10.4424 0.0381944 10.7479 0 11.0153 0C11.2826 0 11.5882 0.0763889 11.8174 0.267361L21.5722 8.84201C21.8778 9.10938 22.0306 9.41493 21.9924 9.75868Z" fill="white"/>
</svg>
