<svg width="456" height="456" viewBox="0 0 456 456" fill="none" xmlns="http://www.w3.org/2000/svg">
<g clip-path="url(#clip0_466_718)">
<path d="M324.965 167.082C324.965 158.751 318.208 152 309.871 152H137.094C128.756 152 122 158.751 122 167.082V183.393V294.463C122 299.911 126.458 304.333 131.951 304.333H315.014C320.507 304.333 324.965 299.92 324.965 294.463V288.942H274.069C250.246 288.942 230.931 269.788 230.931 246.164C230.931 234.356 235.764 223.663 243.564 215.919C251.371 208.182 262.162 203.394 274.069 203.394H324.965V183.393H162.13C154.347 180.348 148.194 174.444 145.211 167.082H324.965Z" fill="white"/>
<path d="M341.199 198.378L341.134 198.312C338.754 196.154 336.268 195.283 334.973 194.925C335.03 195.804 335.095 197.083 335.127 198.614C335.242 204.184 335.274 207.034 334.027 209.982C333.424 211.415 332.544 213.003 330.621 214.347C328.404 215.902 326.057 216.139 324.965 216.082H274.574C257.288 216.082 243.278 230.08 243.278 247.353C243.278 264.625 257.288 278.624 274.574 278.624H315.014C323.261 278.624 331.183 275.204 336.692 269.072C336.733 269.023 336.774 268.974 336.823 268.925L336.872 268.876C342.112 262.989 344.989 255.374 344.989 247.491V207.164C344.989 203.834 343.66 200.617 341.207 198.361L341.199 198.378ZM265.348 259.601C258.299 260.301 252.422 254.43 253.123 247.385C253.637 242.174 257.858 237.955 263.074 237.442C270.124 236.742 276 242.613 275.299 249.657C274.786 254.869 270.564 259.088 265.348 259.601Z" fill="white"/>
</g>
<defs>
<clipPath id="clip0_466_718">
<rect width="222.981" height="152.333" fill="white" transform="translate(122 152)"/>
</clipPath>
</defs>
</svg>
