<svg width="456" height="456" viewBox="0 0 456 456" fill="none" xmlns="http://www.w3.org/2000/svg">
<g clip-path="url(#clip0_466_718)">
<path d="M319.965 167.082C319.965 158.751 313.208 152 304.871 152H132.094C123.756 152 117 158.751 117 167.082V183.393V294.463C117 299.911 121.458 304.333 126.951 304.333H310.014C315.507 304.333 319.965 299.92 319.965 294.463V288.942H269.069C245.246 288.942 225.931 269.788 225.931 246.164C225.931 234.356 230.764 223.663 238.564 215.919C246.371 208.182 257.162 203.394 269.069 203.394H319.965V183.393H157.13C149.347 180.348 143.194 174.444 140.211 167.082H319.965Z" fill="white"/>
<path d="M336.199 198.378L336.134 198.312C333.754 196.154 331.268 195.283 329.973 194.925C330.03 195.804 330.095 197.083 330.127 198.614C330.242 204.184 330.274 207.034 329.027 209.982C328.424 211.415 327.544 213.003 325.621 214.347C323.404 215.902 321.057 216.139 319.965 216.082H269.574C252.288 216.082 238.278 230.08 238.278 247.353C238.278 264.625 252.288 278.624 269.574 278.624H310.014C318.261 278.624 326.183 275.204 331.692 269.072C331.733 269.023 331.774 268.974 331.823 268.925L331.872 268.876C337.112 262.989 339.989 255.374 339.989 247.491V207.164C339.989 203.834 338.66 200.617 336.207 198.361L336.199 198.378ZM260.348 259.601C253.299 260.301 247.422 254.43 248.123 247.385C248.637 242.174 252.858 237.955 258.074 237.442C265.124 236.742 271 242.613 270.299 249.657C269.786 254.869 265.564 259.088 260.348 259.601Z" fill="white"/>
</g>
<defs>
<clipPath id="clip0_466_718">
<rect width="222.981" height="152.333" fill="white" transform="translate(117 152)"/>
</clipPath>
</defs>
</svg>
