<svg width="456" height="456" viewBox="0 0 456 456" fill="none" xmlns="http://www.w3.org/2000/svg">
<g clip-path="url(#clip0_460_715)">
<g clip-path="url(#clip1_460_715)">
<path d="M332.221 85.0819C332.221 76.751 325.464 70 317.127 70H144.35C136.012 70 129.256 76.751 129.256 85.0819V101.393V212.463C129.256 217.911 133.714 222.333 139.207 222.333H322.27C327.763 222.333 332.221 217.92 332.221 212.463V206.942H281.325C257.503 206.942 238.187 187.788 238.187 164.164C238.187 152.356 243.02 141.663 250.82 133.919C258.627 126.182 269.418 121.394 281.325 121.394H332.221V101.393H169.386C161.603 98.3477 155.45 92.4436 152.467 85.0819H332.221Z" fill="white"/>
<path d="M348.455 116.378L348.39 116.312C346.01 114.154 343.525 113.283 342.229 112.925C342.286 113.804 342.351 115.083 342.384 116.614C342.498 122.184 342.53 125.034 341.283 127.982C340.68 129.415 339.8 131.003 337.877 132.347C335.66 133.902 333.313 134.139 332.221 134.082H281.83C264.544 134.082 250.534 148.08 250.534 165.353C250.534 182.625 264.544 196.624 281.83 196.624H322.27C330.517 196.624 338.439 193.204 343.948 187.072C343.989 187.023 344.03 186.974 344.079 186.925L344.128 186.876C349.368 180.989 352.245 173.374 352.245 165.491V125.164C352.245 121.834 350.916 118.617 348.463 116.361L348.455 116.378ZM272.604 177.601C265.555 178.301 259.679 172.43 260.379 165.385C260.893 160.174 265.115 155.955 270.33 155.442C277.38 154.742 283.256 160.613 282.555 167.658C282.042 172.869 277.82 177.088 272.604 177.601Z" fill="white"/>
</g>
<g clip-path="url(#clip2_460_715)">
<path d="M-1 351.582L7.89113 340.002C12.8847 345.283 19.3792 348.33 26.2704 348.33C33.1616 348.33 36.8587 345.079 36.8587 340.41C36.8587 329.341 6.59051 331.167 6.59051 309.334C6.59051 298.977 14.3814 287.7 31.8652 287.7C41.2553 287.7 50.1464 291.052 56.1378 296.636L47.349 307.908C42.3555 303.338 36.9611 301.205 31.5667 301.205C25.0721 301.205 21.4773 304.76 21.4773 309.026C21.4773 319.791 51.7455 318.065 51.7455 340.002C51.7455 350.667 44.2531 361.835 25.8738 361.835C15.9848 361.835 5.99351 358.484 -0.995736 351.577L-1 351.582Z" fill="white"/>
<path d="M94.9945 310.045H110.679L81.5107 367.423C75.1184 380.221 69.7241 385.705 59.4342 385.705C55.5366 385.705 51.5409 384.587 48.7478 382.762L53.5409 371.49C55.639 372.404 57.2381 372.708 58.7349 372.708C62.1293 372.708 65.1271 370.675 67.9245 364.887L69.3232 362.147L58.2359 310.049H72.4191L78.4148 346.202L94.9987 310.049L94.9945 310.045Z" fill="white"/>
<path d="M107.084 353.511L114.278 344.268C118.674 347.923 124.167 350.056 129.062 350.056C133.958 350.056 136.256 348.43 136.256 345.69C136.256 338.376 112.18 341.121 112.18 324.464C112.18 314.51 121.472 309.026 132.256 309.026C139.646 309.026 146.64 311.159 152.734 315.728L145.54 325.071C141.344 321.924 136.35 320.298 132.555 320.298C128.461 320.298 126.261 322.127 126.261 324.36C126.261 331.774 150.235 329.233 150.235 345.686C150.235 355.64 142.043 361.328 129.557 361.328C121.467 361.328 112.973 358.787 107.08 353.507L107.084 353.511Z" fill="white"/>
<path d="M160.623 327.412C160.623 307.812 175.808 287.705 199.581 287.705C212.366 287.705 223.756 294 229.351 304.764L217.564 312.889C213.969 306.186 207.274 301.92 198.486 301.92C183.902 301.92 175.309 315.022 175.309 327.412C175.309 339.803 183.202 347.624 195.087 347.624C201.978 347.624 207.974 344.372 213.07 337.873L223.359 347.116C216.669 355.748 207.279 361.844 193.991 361.844C176.111 361.844 160.627 348.846 160.627 327.417L160.623 327.412Z" fill="white"/>
<path d="M230.549 360.318L238.34 310.045H252.523L251.423 317.155C255.917 311.571 261.41 309.03 268.105 309.03C268.804 309.03 269.303 309.03 270.105 309.13L267.806 323.246C266.608 323.042 265.61 323.042 264.608 323.042C256.318 323.042 249.525 328.626 247.926 339.391L244.728 360.313H230.545L230.549 360.318Z" fill="white"/>
<path d="M320.254 339.803H284.19C285.491 346.809 290.685 349.96 296.676 349.96C301.073 349.96 304.667 348.031 307.465 344.884L315.857 352.601C310.561 358.896 303.67 361.336 295.678 361.336C281.794 361.336 270.305 352.401 270.305 336.66C270.305 321.833 280.395 309.035 297.674 309.035C310.859 309.035 320.949 317.363 320.949 332.597C320.949 335.138 320.65 337.167 320.249 339.807L320.254 339.803ZM284.591 330.56H307.768C307.068 324.161 302.974 320.402 297.179 320.402C290.787 320.402 286.292 324.464 284.591 330.56Z" fill="white"/>
<path d="M327.042 337.873C327.042 321.217 337.929 309.03 352.914 309.03C360.206 309.03 365.899 312.382 369.297 316.851L374.491 284.15H388.577L376.688 360.318H362.803L363.502 355.241C359.907 359 354.812 361.336 348.419 361.336C335.933 361.336 327.042 351.69 327.042 337.878V337.873ZM366.5 333.811C366.5 326.497 361.805 321.525 354.914 321.525C346.824 321.525 341.029 328.327 341.029 336.352C341.029 343.561 345.626 348.742 352.816 348.742C360.509 348.742 366.5 342.751 366.5 333.816V333.811Z" fill="white"/>
<path d="M389.276 360.318L397.067 310.045H411.25L403.459 360.318H389.276ZM398.065 294.407C398.065 289.226 402.461 285.368 407.254 285.368C411.749 285.368 415.148 288.819 415.148 293.189C415.148 298.37 410.653 302.228 405.958 302.228C401.263 302.228 398.065 298.877 398.065 294.407Z" fill="white"/>
<path d="M423.937 340.921L426.934 322.132H418.342L420.239 310.045H428.73L431.028 295.318H445.211L442.913 310.045H456L454.201 322.132H441.015L438.12 340.613C437.322 345.894 439.42 349.041 444.712 349.041C445.911 349.041 447.51 348.838 448.909 348.33L448.61 360.313C446.414 360.924 444.013 361.328 441.22 361.328C428.734 361.328 422.039 353.203 423.937 340.917V340.921Z" fill="white"/>
</g>
</g>
<defs>
<clipPath id="clip0_460_715">
<rect width="456" height="456" fill="white"/>
</clipPath>
<clipPath id="clip1_460_715">
<rect width="222.981" height="152.333" fill="white" transform="translate(129.256 70)"/>
</clipPath>
<clipPath id="clip2_460_715">
<rect width="457" height="101.556" fill="white" transform="translate(-1 284.15)"/>
</clipPath>
</defs>
</svg>
