<?xml version="1.0" encoding="iso-8859-1"?>
<!-- Uploaded to: SVG Repo, www.svgrepo.com, Generator: SVG Repo Mixer Tools -->
<svg fill="white" version="1.1" id="Layer_1" xmlns="http://www.w3.org/2000/svg" xmlns:xlink="http://www.w3.org/1999/xlink" 
	 viewBox="0 0 512 512" xml:space="preserve">
<g>
	<g>
		<path d="M512,63.34V5.278H0V63.34h21.113v269.196H0v58.062h221.691v116.124h68.619V390.598H512v-58.062h-21.113V63.34H512z
			 M274.474,490.887h-36.948V390.598h36.948V490.887z M496.165,348.371v26.392H15.835v-26.392H496.165z M36.948,332.536V63.34
			h438.103v269.196H36.948z M15.835,47.505V21.113h480.33v26.392H15.835z"/>
	</g>
</g>
<g>
	<g>
		<path d="M197.938,105.567c-53.844,0-97.65,43.805-97.65,97.649c0,53.844,43.805,97.649,97.65,97.649
			c24.626,0,48.096-9.185,66.052-25.835c20.081-18.416,31.597-44.591,31.597-71.814
			C295.588,149.372,251.783,105.567,197.938,105.567z M197.938,285.031c-45.112,0-81.814-36.703-81.814-81.814
			c0-42.441,32.486-77.428,73.897-81.425v89.982l56.902,56.903C232.885,279.267,215.78,285.031,197.938,285.031z M258.611,257.97
			l-52.755-52.754v-83.423c41.411,3.996,73.897,38.983,73.897,81.424C279.753,223.47,272.124,243.019,258.611,257.97z"/>
	</g>
</g>
<g>
	<g>
		<polygon points="316.061,95.01 287.349,123.721 298.548,134.918 322.619,110.845 372.124,110.845 372.124,95.01 		"/>
	</g>
</g>
<g>
	<g>
		<rect x="340.454" y="153.072" width="63.34" height="15.835"/>
	</g>
</g>
<g>
	<g>
		<rect x="340.454" y="184.742" width="100.289" height="15.835"/>
	</g>
</g>
<g>
	<g>
		<rect x="340.454" y="216.412" width="100.289" height="15.835"/>
	</g>
</g>
<g>
	<g>
		<rect x="340.454" y="248.082" width="21.113" height="15.835"/>
	</g>
</g>
<g>
	<g>
		<rect x="372.124" y="248.082" width="21.113" height="15.835"/>
	</g>
</g>
<g>
	<g>
		<rect x="419.629" y="248.082" width="21.113" height="15.835"/>
	</g>
</g>
</svg>