<?xml version="1.0" encoding="utf-8"?>
<!-- Generator: Adobe Illustrator 28.1.0, SVG Export Plug-In . SVG Version: 6.00 Build 0)  -->
<svg version="1.1" id="Capa_1" xmlns="http://www.w3.org/2000/svg" xmlns:xlink="http://www.w3.org/1999/xlink" x="0px" y="0px"
	 viewBox="0 0 450 450" style="enable-background:new 0 0 450 450;" xml:space="preserve">
<style type="text/css">
	.st0{fill:#5F9DEF;}
	.st1{fill:#042757;}
</style>
<g>
	<path class="st0" d="M420.3,123.2c0,1.5,0,3.1-0.1,4.6c-0.1,1.5-0.2,3.1-0.3,4.6c-0.2,1.5-0.3,3.1-0.6,4.6c-0.2,1.5-0.5,3-0.8,4.6
		c-0.3,1.5-0.6,3-1,4.5c-0.4,1.5-0.8,3-1.2,4.5c-0.4,1.5-0.9,2.9-1.4,4.4c-0.5,1.5-1.1,2.9-1.7,4.3c-0.6,1.4-1.2,2.8-1.9,4.2
		c-0.7,1.4-1.3,2.8-2.1,4.1c-0.7,1.4-1.5,2.7-2.3,4c-0.8,1.3-1.6,2.6-2.5,3.9c-0.9,1.3-1.7,2.5-2.7,3.8c-0.9,1.2-1.9,2.5-2.8,3.6
		c-1,1.2-2,2.4-3,3.5c-1,1.1-2.1,2.3-3.2,3.3c-1.1,1.1-2.2,2.2-3.3,3.2c-1.1,1-2.3,2-3.5,3c-1.2,1-2.4,1.9-3.6,2.8
		c-1.2,0.9-2.5,1.8-3.8,2.7s-2.6,1.7-3.9,2.5c-1.3,0.8-2.7,1.6-4,2.3c-1.4,0.7-2.7,1.4-4.1,2.1c-1.4,0.7-2.8,1.3-4.2,1.9
		c-1.4,0.6-2.9,1.1-4.3,1.7c-1.5,0.5-2.9,1-4.4,1.5c-1.5,0.4-3,0.9-4.5,1.2c-1.5,0.4-3,0.7-4.5,1c-1.5,0.3-3,0.6-4.6,0.8
		c-1.5,0.2-3.1,0.4-4.6,0.6c-1.5,0.2-3.1,0.3-4.6,0.3c-1.5,0.1-3.1,0.1-4.6,0.1s-3.1,0-4.6-0.1c-1.5-0.1-3.1-0.2-4.6-0.3
		c-1.5-0.2-3.1-0.3-4.6-0.6c-1.5-0.2-3-0.5-4.6-0.8c-1.5-0.3-3-0.6-4.5-1c-1.5-0.4-3-0.8-4.5-1.2c-1.5-0.4-2.9-0.9-4.4-1.5
		c-1.5-0.5-2.9-1.1-4.3-1.7c-1.4-0.6-2.8-1.2-4.2-1.9c-1.4-0.7-2.8-1.4-4.1-2.1c-1.4-0.7-2.7-1.5-4-2.3c-1.3-0.8-2.6-1.6-3.9-2.5
		s-2.5-1.7-3.8-2.7c-1.2-0.9-2.5-1.9-3.6-2.8c-1.2-1-2.4-2-3.5-3c-1.1-1-2.3-2.1-3.3-3.2c-1.1-1.1-2.2-2.2-3.2-3.3
		c-1-1.1-2-2.3-3-3.5c-1-1.2-1.9-2.4-2.8-3.6c-0.9-1.2-1.8-2.5-2.7-3.8c-0.9-1.3-1.7-2.6-2.5-3.9c-0.8-1.3-1.6-2.7-2.3-4
		c-0.7-1.4-1.4-2.7-2.1-4.1c-0.7-1.4-1.3-2.8-1.9-4.2c-0.6-1.4-1.1-2.9-1.7-4.3c-0.5-1.4-1-2.9-1.5-4.4c-0.4-1.5-0.9-3-1.2-4.5
		c-0.4-1.5-0.7-3-1-4.5c-0.3-1.5-0.6-3-0.8-4.6c-0.2-1.5-0.4-3.1-0.6-4.6c-0.2-1.5-0.3-3.1-0.3-4.6c-0.1-1.5-0.1-3.1-0.1-4.6
		c0-1.5,0-3.1,0.1-4.6c0.1-1.5,0.2-3.1,0.3-4.6c0.2-1.5,0.3-3.1,0.6-4.6c0.2-1.5,0.5-3,0.8-4.6c0.3-1.5,0.6-3,1-4.5
		c0.4-1.5,0.8-3,1.2-4.5c0.4-1.5,0.9-2.9,1.5-4.4c0.5-1.5,1.1-2.9,1.7-4.3c0.6-1.4,1.2-2.8,1.9-4.2c0.7-1.4,1.4-2.8,2.1-4.1
		c0.7-1.4,1.5-2.7,2.3-4c0.8-1.3,1.6-2.6,2.5-3.9c0.9-1.3,1.7-2.5,2.7-3.8c0.9-1.2,1.9-2.5,2.8-3.6c1-1.2,2-2.4,3-3.5
		c1-1.1,2.1-2.3,3.2-3.3c1.1-1.1,2.2-2.2,3.3-3.2c1.1-1,2.3-2,3.5-3c1.2-1,2.4-1.9,3.6-2.8c1.2-0.9,2.5-1.8,3.8-2.7
		c1.3-0.9,2.6-1.7,3.9-2.5c1.3-0.8,2.7-1.6,4-2.3c1.4-0.7,2.7-1.4,4.1-2.1c1.4-0.7,2.8-1.3,4.2-1.9c1.4-0.6,2.9-1.1,4.3-1.7
		c1.5-0.5,2.9-1,4.4-1.4c1.5-0.4,3-0.9,4.5-1.2c1.5-0.4,3-0.7,4.5-1c1.5-0.3,3-0.6,4.6-0.8c1.5-0.2,3.1-0.4,4.6-0.6
		c1.5-0.2,3.1-0.3,4.6-0.3c1.5-0.1,3.1-0.1,4.6-0.1s3.1,0,4.6,0.1c1.5,0.1,3.1,0.2,4.6,0.3s3.1,0.3,4.6,0.6c1.5,0.2,3,0.5,4.6,0.8
		c1.5,0.3,3,0.6,4.5,1s3,0.8,4.5,1.2c1.5,0.4,2.9,0.9,4.4,1.4c1.5,0.5,2.9,1.1,4.3,1.7c1.4,0.6,2.8,1.2,4.2,1.9
		c1.4,0.7,2.8,1.3,4.1,2.1c1.4,0.7,2.7,1.5,4,2.3c1.3,0.8,2.6,1.6,3.9,2.5c1.3,0.9,2.5,1.7,3.8,2.7c1.2,0.9,2.5,1.9,3.6,2.8
		c1.2,1,2.4,2,3.5,3c1.1,1,2.3,2.1,3.3,3.2c1.1,1.1,2.2,2.2,3.2,3.3c1,1.1,2,2.3,3,3.5c1,1.2,1.9,2.4,2.8,3.6
		c0.9,1.2,1.8,2.5,2.7,3.8c0.9,1.3,1.7,2.6,2.5,3.9c0.8,1.3,1.6,2.7,2.3,4c0.7,1.4,1.4,2.7,2.1,4.1c0.7,1.4,1.3,2.8,1.9,4.2
		c0.6,1.4,1.1,2.9,1.7,4.3c0.5,1.5,1,2.9,1.4,4.4c0.4,1.5,0.9,3,1.2,4.5c0.4,1.5,0.7,3,1,4.5c0.3,1.5,0.6,3,0.8,4.6
		c0.2,1.5,0.4,3.1,0.6,4.6c0.2,1.5,0.3,3.1,0.3,4.6C420.3,120.1,420.3,121.7,420.3,123.2z"/>
	<path class="st1" d="M72.5,79.7c0,0.5,0,0.9-0.1,1.4c-0.1,0.5-0.2,0.9-0.4,1.4c-0.2,0.4-0.4,0.9-0.7,1.2c-0.3,0.4-0.6,0.8-0.9,1.1
		c-0.3,0.3-0.7,0.6-1.1,0.9c-0.4,0.3-0.8,0.5-1.2,0.7c-0.4,0.2-0.9,0.3-1.4,0.4c-0.5,0.1-0.9,0.1-1.4,0.1c-0.5,0-0.9,0-1.4-0.1
		s-0.9-0.2-1.4-0.4c-0.4-0.2-0.9-0.4-1.3-0.7c-0.4-0.3-0.8-0.6-1.1-0.9c-0.3-0.3-0.6-0.7-0.9-1.1c-0.3-0.4-0.5-0.8-0.7-1.2
		c-0.2-0.4-0.3-0.9-0.4-1.4C58,80.7,58,80.2,58,79.7c0-0.5,0-0.9,0.1-1.4c0.1-0.5,0.2-0.9,0.4-1.4c0.2-0.4,0.4-0.9,0.7-1.3
		c0.3-0.4,0.6-0.8,0.9-1.1c0.3-0.3,0.7-0.6,1.1-0.9c0.4-0.3,0.8-0.5,1.3-0.7c0.4-0.2,0.9-0.3,1.4-0.4c0.5-0.1,0.9-0.1,1.4-0.1
		c0.5,0,0.9,0,1.4,0.1c0.5,0.1,0.9,0.2,1.4,0.4c0.4,0.2,0.9,0.4,1.2,0.7c0.4,0.3,0.8,0.6,1.1,0.9c0.3,0.3,0.6,0.7,0.9,1.1
		c0.3,0.4,0.5,0.8,0.7,1.3c0.2,0.4,0.3,0.9,0.4,1.4S72.5,79.2,72.5,79.7z"/>
	<path class="st1" d="M116,333.4h43.5v14.5H116V333.4z"/>
	<path class="st1" d="M101.3,203.3l10.2,10.2c6.8-6.8,16-10.6,25.6-10.6c9.7,0,18.8,3.8,25.6,10.6l10.2-10.2
		c-9.6-9.6-22.3-14.9-35.9-14.9C123.6,188.4,110.9,193.7,101.3,203.3z"/>
	<path class="st1" d="M183.3,193l10.2-10.2c-31.1-31.1-81.7-31.1-112.7,0L91.1,193C116.5,167.6,157.9,167.6,183.3,193z"/>
	<path class="st1" d="M121.8,223.8l10.2,10.2c2.8-2.7,7.5-2.7,10.2,0l10.3-10.2C144.4,215.6,130,215.6,121.8,223.8z"/>
	<path class="st1" d="M326.1,0c-38.6,0-74.7,18-97.9,48.5c-5.3-3.1-11.4-5-18-5H65.2c-20,0-36.2,16.3-36.2,36.2v156.4l-4.7,4.7
		C8.6,256.5,0,277.4,0,299.6c0,13.8,3.5,27.6,10.1,39.8l33.3,61.1v48.9h159.4v-49l11.9-23.7c15.4-2,27.8-13.7,30.8-28.7h8
		c12,0,21.7-9.8,21.7-21.7c0-5.6-2.2-10.6-5.7-14.5c3.5-3.9,5.7-8.9,5.7-14.5c0-5.6-2.2-10.6-5.7-14.5c3.5-3.9,5.7-8.9,5.7-14.5
		c0-2.5-0.5-5-1.3-7.2h8.6c10.2,0,18.7-7.1,21.1-16.6c7.4,1.3,14.9,2.1,22.4,2.1c67.9,0,123.2-55.3,123.2-123.2S394.1,0,326.1,0z
		 M326.1,14.5c16.2,0,30.8,17.3,40.2,43.5h-80.4C295.3,31.8,310,14.5,326.1,14.5z M370.8,72.5c3.3,13.2,5.4,28,5.9,43.5H275.6
		c0.5-15.5,2.6-30.3,5.9-43.5H370.8z M261.1,116h-14.7V79.7c0-2.5-0.3-4.9-0.7-7.2h20.9C263.4,85.8,261.5,100.5,261.1,116z
		 M246.4,130.5h14.7c0.5,15.2,2.3,29.9,5.5,43.5h-20.2V130.5z M275.6,130.5h101.1c-0.5,15.5-2.6,30.3-5.9,43.5h-89.3
		C278,160.5,276.1,145.8,275.6,130.5z M391.2,130.5h43.3c-1,15.6-5.3,30.3-12.3,43.5h-36.5C388.8,160.6,390.7,146,391.2,130.5z
		 M391.2,116c-0.5-15.5-2.3-30.2-5.4-43.5h36.5c7,13.1,11.2,27.9,12.3,43.5H391.2z M412.9,58h-31.2c-4.8-14.7-11.1-27.3-18.6-36.9
		C383.1,28.4,400.3,41.3,412.9,58z M289.3,21c-7.6,9.6-13.9,22.3-18.7,37h-31.4C252.1,40.8,269.6,28.1,289.3,21z M158.1,58
		c-3,8.4-11,14.5-20.4,14.5c-9.4,0-17.4-6.1-20.4-14.5H158.1z M43.5,79.7c0-12,9.8-21.7,21.7-21.7h37c3.4,16.5,18,29,35.5,29
		c17.5,0,32.1-12.5,35.5-29h37c12,0,21.7,9.8,21.7,21.7v166.7h-7.2c-12,0-21.7,9.8-21.7,21.7c0,5.6,2.2,10.6,5.7,14.5
		c-3.5,3.9-5.7,8.9-5.7,14.5c0,2.6,0.5,5,1.3,7.2H80.1c-4.3-8.7-10.5-16.4-18.3-22.5l15.6-15.6c3.2-3.2,5.9-6.7,8.2-10.4
		c14.4,12.5,32.9,19.5,52.2,19.5c44,0,79.7-35.8,79.7-79.7c0-44-35.8-79.7-79.7-79.7c-44,0-79.7,35.8-79.7,79.7
		c0,3.8,0.4,7.5,0.9,11.2c-1.2,0.8-2.3,1.7-3.3,2.7l-12.1,12.1V79.7z M260.9,297.1c0,4-3.2,7.2-7.2,7.2h-29c-4,0-7.2-3.2-7.2-7.2
		c0-4,3.2-7.2,7.2-7.2h29C257.7,289.9,260.9,293.1,260.9,297.1z M72.9,203.1c-0.3-2.5-0.4-4.9-0.4-7.4c0-36,29.3-65.2,65.2-65.2
		s65.2,29.3,65.2,65.2c0,36-29.3,65.2-65.2,65.2c-17.2,0-33.7-6.9-45.9-19c1.6-5.3,2.4-10.8,2.4-16.4
		C94.2,213.5,84.8,203.8,72.9,203.1z M188.4,396.9v37.9H58v-38.1l-35.1-64.4c-5.5-10-8.4-21.4-8.4-32.8c0-18.3,7.1-35.5,20.1-48.5
		l31.3-31.3c1.5-1.5,3.6-2.4,5.8-2.4c4.5,0,8.1,3.6,8.1,8.1c0,11.5-4.5,22.4-12.6,30.5l-27.4,27.4l12.5,9.4
		c12.7,9.5,20.3,24.7,20.3,40.6v43.5h126L188.4,396.9z M210.2,362.4H87v-29c0-4.9-0.6-9.8-1.7-14.5h119c-0.8,2.3-1.3,4.7-1.3,7.2
		c0,12,9.8,21.7,21.7,21.7h5.9C227.6,356.3,219.6,362.4,210.2,362.4z M253.7,333.4h-29c-4,0-7.2-3.2-7.2-7.2s3.2-7.2,7.2-7.2h29
		c4,0,7.2,3.3,7.2,7.2S257.7,333.4,253.7,333.4z M260.9,268.2c0,4-3.2,7.2-7.2,7.2h-29c-4,0-7.2-3.3-7.2-7.2c0-4,3.2-7.2,7.2-7.2h29
		C257.7,260.9,260.9,264.2,260.9,268.2z M282.6,246.4h-36.2v-14.5h36.2c4,0,7.2,3.2,7.2,7.2C289.9,243.2,286.6,246.4,282.6,246.4z
		 M301.8,229.1c-3.6-6.9-10.8-11.7-19.2-11.7h-36.2v-29h24.2c2,6.3,4.4,12.2,7,17.8l13.1-6.2c-1.7-3.6-3.3-7.5-4.7-11.5h80.4
		c-9.4,26.2-24,43.5-40.2,43.5C317.9,231.9,309.8,230.9,301.8,229.1z M363.1,225.3c7.5-9.6,13.8-22.2,18.6-36.9h31.2
		C400.3,205.1,383.1,218.1,363.1,225.3z"/>
</g>
</svg>
