<?xml version="1.0" encoding="iso-8859-1"?>
<!-- Uploaded to: SVG Repo, www.svgrepo.com, Generator: SVG Repo Mixer Tools -->
<!DOCTYPE svg PUBLIC "-//W3C//DTD SVG 1.1//EN" "http://www.w3.org/Graphics/SVG/1.1/DTD/svg11.dtd">
<svg fill="#000000" height="800px" width="800px" version="1.1" id="Capa_1" xmlns="http://www.w3.org/2000/svg" xmlns:xlink="http://www.w3.org/1999/xlink" 
	 viewBox="0 0 460.067 460.067" xml:space="preserve">
<g id="XMLID_105_">
	<path id="XMLID_106_" d="M454.166,121.397c-0.111-22.012-18.11-39.92-40.122-39.92c-2.684,0-92.473-0.08-95.477,0.255
		c14.375,11.543,23.647,29.21,23.747,48.99l0.674,134.227c0.073,14.404-7.867,27.011-19.623,33.599v108.027
		c0,11.236,9.109,20.345,20.345,20.345s20.345-9.108,20.345-20.345V248.348c0-2.426,1.967-4.393,4.393-4.393
		s4.393,1.967,4.393,4.393v158.229c0,11.236,9.108,20.345,20.345,20.345s20.345-9.108,20.345-20.345
		c0-269.096-0.36-114.966-0.369-285.049c0-1.96,1.588-3.548,3.548-3.548c1.96,0,3.548,1.588,3.548,3.548c0,0.014,0,0.028,0,0.042
		l0.626,124.557c0.047,9.335,7.628,16.869,16.952,16.869c0.028,0,0.059,0,0.087,0c9.363-0.047,16.916-7.676,16.869-17.039
		L454.166,121.397z"/>
	<path id="XMLID_979_" d="M57.371,42.774c0.136,0.615,0.289,1.223,0.457,1.825c1.681,6.019,4.926,11.385,9.267,15.637
		c0.434,0.425,0.879,0.839,1.335,1.242c6.196,5.472,14.33,8.799,23.246,8.799s17.051-3.327,23.246-8.799h0
		c5.011-4.426,8.753-10.257,10.602-16.878c0.168-0.602,0.321-1.21,0.457-1.825c0.273-1.229,0.481-2.482,0.621-3.756
		c0.14-1.274,0.212-2.568,0.212-3.88C126.815,15.732,111.083,0,91.676,0C72.27,0,56.538,15.732,56.538,35.139
		c0,1.311,0.072,2.606,0.212,3.88C56.89,40.292,57.098,41.545,57.371,42.774z"/>
	<path id="XMLID_981_" d="M117.079,264.95l0.674-134.228c0.099-19.78,9.371-37.447,23.747-48.99
		c-1.465-0.163-95.477-0.255-95.477-0.255c-22.013,0-40.011,17.908-40.122,39.921L5.276,245.955
		c-0.047,9.363,7.505,16.992,16.869,17.039c0.029,0,0.058,0,0.087,0c9.323,0,16.905-7.534,16.952-16.869l0.626-124.557
		c0-0.001,0-0.001,0-0.002c0.01-1.805,1.478-3.261,3.283-3.256s3.264,1.47,3.264,3.274l0.008,284.991
		c0,11.236,9.109,20.345,20.345,20.345s20.345-9.108,20.345-20.345V248.348c0-2.426,1.967-4.393,4.393-4.393
		s4.393,1.967,4.393,4.393v158.229c0,11.236,9.108,20.345,20.345,20.345s20.345-9.108,20.345-20.345V298.448
		C124.869,291.833,117.007,279.283,117.079,264.95z"/>
	<path id="XMLID_982_" d="M195.297,52.606c0.479,1.133,1.012,2.237,1.595,3.31c0.583,1.073,1.216,2.115,1.897,3.122
		c0.34,0.504,0.692,0.999,1.056,1.485c1.09,1.458,2.283,2.835,3.568,4.12c0.428,0.428,0.867,0.846,1.315,1.254
		c0.734,0.667,1.501,1.298,2.286,1.907c6.406,4.966,14.442,7.93,23.175,7.93c8.733,0,16.769-2.964,23.174-7.93
		c0.37-0.287,0.737-0.576,1.096-0.876c8.308-6.946,13.596-17.384,13.596-29.06c0-15.942-9.857-29.574-23.805-35.158
		c-1.447-0.579-2.938-1.073-4.466-1.473c-0.51-0.133-1.023-0.256-1.541-0.368c-0.833-0.181-1.676-0.336-2.528-0.461
		c-0.902-0.132-1.814-0.233-2.735-0.302C232.057,0.035,231.126,0,230.188,0l0,0h0c-1.307,0-2.599,0.066-3.872,0.196
		c-1.273,0.129-2.527,0.322-3.76,0.574c-0.616,0.126-1.227,0.267-1.832,0.423c-1.21,0.311-2.396,0.681-3.556,1.106
		c-0.58,0.212-1.153,0.438-1.72,0.678c-1.133,0.479-2.237,1.011-3.31,1.594s-2.115,1.216-3.122,1.897
		c-10.073,6.805-16.695,18.329-16.695,31.399v0v0c0,3.268,0.414,6.438,1.192,9.463C193.98,49.145,194.578,50.907,195.297,52.606z"/>
	<path id="XMLID_983_" d="M322.314,130.822c-0.12-23.721-19.516-43.02-43.237-43.02h0h-18.201
		c-2.267,5.923-20.296,53.024-22.928,59.9l5.34-25.155c0.375-1.766,0.103-3.609-0.767-5.191l-7.333-13.337l6.273-12.284
		c0.452-0.822,0.436-1.822-0.041-2.63c-0.478-0.808-1.346-1.303-2.285-1.303h-17.893c-0.938,0-1.807,0.495-2.285,1.303
		c-0.478,0.808-0.493,1.807-0.041,2.63l6.766,12.284l-7.36,13.387c-0.854,1.552-1.132,3.356-0.787,5.094l4.669,25.203
		c-2.493-6.393-20.43-54.08-22.699-59.9H180.99h0c-23.755,0-43.118,19.335-43.237,43.021l-0.334,66.439l-0.341,67.788
		c-0.051,10.091,8.088,18.312,18.179,18.363c0.031,0,0.063,0,0.094,0c10.047,0,18.218-8.12,18.269-18.179l0.344-68.477
		c0.354-70.49,0.263-66.092,0.473-67.092c0.369-1.753,2.002-2.943,3.783-2.757c1.781,0.186,3.13,1.689,3.13,3.479l0.008,307.755
		c0,12.108,9.816,21.925,21.925,21.925c12.147,0,21.925-9.873,21.925-21.925V267.628c0-2.614,2.119-4.733,4.733-4.733
		s4.733,2.119,4.733,4.733v170.514c0,12.056,9.779,21.925,21.925,21.925c12.109,0,21.925-9.816,21.925-21.925
		c0-159.215-0.298-277.767-0.378-306.886c-0.006-2.063,1.629-3.758,3.691-3.826s3.807,1.514,3.936,3.574c0,0.001,0,0.001,0,0.002
		l0.341,67.788l0.333,66.439c0.051,10.06,8.221,18.179,18.269,18.179c0.031,0,0.063,0,0.094,0
		c10.09-0.051,18.229-8.271,18.179-18.362l-0.332-66.108L322.314,130.822z"/>
	<path id="XMLID_984_" d="M345.43,61.478c6.196,5.472,14.33,8.799,23.246,8.799s17.051-3.327,23.246-8.799
		c7.29-6.438,11.892-15.849,11.892-26.339C403.815,15.732,388.083,0,368.676,0c-19.406,0-35.138,15.732-35.138,35.139
		C333.538,45.629,338.141,55.039,345.43,61.478z"/>
</g>
</svg>