<svg width="25" height="24" viewBox="0 0 25 24" fill="none" xmlns="http://www.w3.org/2000/svg">
<path d="M17.3269 11.0769C17.3269 12.081 17.0292 13.0626 16.4713 13.8975C15.9134 14.7324 15.1205 15.3831 14.1929 15.7674C13.2652 16.1516 12.2444 16.2522 11.2595 16.0563C10.2747 15.8604 9.3701 15.3769 8.66008 14.6668C7.95006 13.9568 7.46653 13.0522 7.27063 12.0674C7.07474 11.0826 7.17528 10.0618 7.55954 9.13407C7.9438 8.20638 8.59452 7.41347 9.42942 6.85561C10.2643 6.29776 11.2459 6 12.25 6C13.596 6.00153 14.8865 6.5369 15.8382 7.48868C16.79 8.44046 17.3254 9.73091 17.3269 11.0769ZM24.25 12C24.25 14.3734 23.5462 16.6934 22.2276 18.6668C20.9091 20.6402 19.0349 22.1783 16.8422 23.0865C14.6495 23.9948 12.2367 24.2324 9.90892 23.7694C7.58115 23.3064 5.44295 22.1635 3.76472 20.4853C2.08649 18.807 0.943605 16.6689 0.480582 14.3411C0.0175594 12.0133 0.255199 9.60051 1.16345 7.4078C2.0717 5.21508 3.60977 3.34094 5.58316 2.02236C7.55655 0.703788 9.87663 0 12.25 0C15.4316 0.00335979 18.4819 1.26872 20.7316 3.51843C22.9813 5.76814 24.2466 8.81843 24.25 12ZM22.4038 12C22.4024 10.6333 22.1253 9.28095 21.5892 8.0238C21.053 6.76665 20.2689 5.63053 19.2836 4.68338C18.2984 3.73624 17.1322 2.99753 15.8549 2.51142C14.5775 2.02531 13.2153 1.80179 11.8496 1.85423C6.415 2.06423 2.08116 6.59077 2.09616 12.0288C2.10137 14.5044 3.01441 16.8922 4.66231 18.7396C5.33342 17.7662 6.1859 16.9314 7.17308 16.2808C7.25725 16.2252 7.35731 16.1987 7.45795 16.2054C7.5586 16.212 7.65429 16.2515 7.73039 16.3177C8.98483 17.4027 10.588 17.9998 12.2465 17.9998C13.9051 17.9998 15.5083 17.4027 16.7627 16.3177C16.8388 16.2515 16.9345 16.212 17.0351 16.2054C17.1358 16.1987 17.2358 16.2252 17.32 16.2808C18.3084 16.931 19.1621 17.7659 19.8342 18.7396C21.4903 16.8854 22.4051 14.4861 22.4038 12Z" fill="#8A8A8A"/>
</svg>
