<?xml version="1.0" encoding="utf-8"?>
<!-- Generator: Adobe Illustrator 28.1.0, SVG Export Plug-In . SVG Version: 6.00 Build 0)  -->
<svg version="1.1" id="Capa_1" xmlns="http://www.w3.org/2000/svg" xmlns:xlink="http://www.w3.org/1999/xlink" x="0px" y="0px"
	 viewBox="0 0 450 450" style="enable-background:new 0 0 450 450;" xml:space="preserve">
<style type="text/css">
	.st0{fill:#042757;}
	.st1{fill:#05409F;}
	.st2{clip-path:url(#SVGID_00000068656278292668850480000009973237464329634982_);}
</style>
<g>
	<path class="st0" d="M121.6,336.2c8.8,12.2,17.8,23.8,26.7,34.5c54.3,23.6,117.9-53.2,173-25.6c3.9-5.3,7.9-10.7,11.7-16.3
		C259.7,298.6,180.5,371.6,121.6,336.2"/>
	<path class="st0" d="M165.8,391c32.2,35.8,58.9,58.3,58.9,58.3s44.3-37.3,87.5-92.3C258.4,356.3,211.4,410.4,165.8,391"/>
	<path class="st1" d="M240.5,101.2h-31.7v16h31.7V101.2"/>
	<path class="st1" d="M231.2,217.1c0-3.6-2.9-6.5-6.5-6.5s-6.5,2.9-6.5,6.5v11h13.1V217.1"/>
	<path class="st1" d="M240.5,140v-16h-6.3v16H240.5"/>
	<path class="st1" d="M195.8,124v16h6.5v-16H195.8"/>
	<g>
		<defs>
			<rect id="SVGID_1_" x="55.9" width="337.5" height="321.3"/>
		</defs>
		<clipPath id="SVGID_00000160160659574492042300000009402051363036267656_">
			<use xlink:href="#SVGID_1_"  style="overflow:visible;"/>
		</clipPath>
		<g style="clip-path:url(#SVGID_00000160160659574492042300000009402051363036267656_);">
			<path class="st1" d="M176.1,112.7l-73.5,26.5v-13.3L176.1,112.7z M346.7,125.9v13.3l-73.5-26.5L346.7,125.9z M141.7,317.6
				l25.3-25.7h13.2l14.1-143.2h0.1l-5-8.7v-22.8h13v-16h-10.4L221,72.1l3.7-34.8l3.7,34.8l29.1,29.1H247v16h13V140l-5,8.7h0.1
				l14.1,143.2h13.2l3.6,3.6c19.3,1.3,37.3,8.1,52.8,24.7c30.2-45.7,54.6-98.9,54.6-151.5c0-29.6-7.6-57.4-21-81.6L273.2,105
				l90-32.5C332.8,28.7,282.1,0,224.7,0C167.2,0,116.5,28.7,86.1,72.5l90,32.5L77,87.1c-13.4,24.2-21,52-21,81.6
				c0,46.9,19.3,94.2,44.9,136.3C113.4,313.4,127.1,317,141.7,317.6"/>
		</g>
	</g>
	<path class="st1" d="M218.1,267.6v11h13.1v-11c0-3.6-2.9-6.5-6.5-6.5S218.1,264,218.1,267.6"/>
	<path class="st1" d="M208.8,140h6.3v-16h-6.3V140"/>
	<path class="st1" d="M247,124v16h6.5v-16H247"/>
	<path class="st1" d="M231.2,166.6c0-3.6-2.9-6.5-6.5-6.5s-6.5,2.9-6.5,6.5v11h13.1V166.6"/>
	<path class="st1" d="M227.8,124h-6.3v16h6.3V124"/>
</g>
</svg>
