<svg width="4" height="18" viewBox="0 0 4 18" fill="none" xmlns="http://www.w3.org/2000/svg">
<path d="M2 0.750104C2.48036 0.73789 2.94625 0.915098 3.29706 1.24346C3.64787 1.57182 3.85546 2.02499 3.875 2.5051C3.86725 2.74349 3.81259 2.97802 3.71414 3.19527C3.61569 3.41252 3.47539 3.60824 3.30125 3.77123C3.12712 3.93422 2.92256 4.06129 2.69928 4.14518C2.476 4.22906 2.23838 4.26811 2 4.2601C1.76162 4.26811 1.524 4.22906 1.30072 4.14518C1.07744 4.06129 0.872883 3.93422 0.698747 3.77123C0.52461 3.60824 0.384307 3.41252 0.28586 3.19527C0.187412 2.97802 0.13275 2.74349 0.125 2.5051C0.144538 2.02499 0.352128 1.57182 0.702942 1.24346C1.05376 0.915098 1.51964 0.73789 2 0.750104ZM2 13.7401C2.34102 13.7635 2.66779 13.8859 2.94019 14.0924C3.21259 14.2989 3.41876 14.5805 3.53338 14.9025C3.648 15.2245 3.66609 15.573 3.58542 15.9052C3.50476 16.2373 3.32884 16.5387 3.07929 16.7723C2.82973 17.0059 2.5174 17.1615 2.18063 17.2201C1.84386 17.2786 1.49733 17.2375 1.18357 17.1019C0.869819 16.9663 0.602505 16.7419 0.414453 16.4565C0.226402 16.1711 0.1258 15.8369 0.125 15.4951C0.13275 15.2567 0.187412 15.0222 0.28586 14.8049C0.384307 14.5877 0.52461 14.392 0.698747 14.229C0.872883 14.066 1.07744 13.9389 1.30072 13.855C1.524 13.7711 1.76162 13.7321 2 13.7401ZM2 7.2451C2.46546 7.2451 2.91185 7.43001 3.24097 7.75913C3.5701 8.08826 3.755 8.53465 3.755 9.0001C3.755 9.46556 3.5701 9.91195 3.24097 10.2411C2.91185 10.5702 2.46546 10.7551 2 10.7551C1.53455 10.7551 1.08815 10.5702 0.759028 10.2411C0.429901 9.91195 0.245 9.46556 0.245 9.0001C0.245 8.53465 0.429901 8.08826 0.759028 7.75913C1.08815 7.43001 1.53455 7.2451 2 7.2451Z" fill="#8A8A8A"/>
</svg>
