<?xml version="1.0" encoding="utf-8"?>
<!-- Generator: Adobe Illustrator 28.1.0, SVG Export Plug-In . SVG Version: 6.00 Build 0)  -->
<svg version="1.1" id="Capa_1" xmlns="http://www.w3.org/2000/svg" xmlns:xlink="http://www.w3.org/1999/xlink" x="0px" y="0px"
	 viewBox="0 0 450 450" style="enable-background:new 0 0 450 450;" xml:space="preserve">
<style type="text/css">
	.st0{fill:#042757;}
	.st1{fill:#2D81F1;}
</style>
<g>
	<path class="st0" d="M229.9,415.8c-18.4,0-36.4-3.2-53.5-9.5c-3-1.1-4.5-4.4-3.4-7.4c1.1-3,4.4-4.5,7.4-3.4
		c15.8,5.8,32.5,8.8,49.5,8.8c78.7,0,142.6-64,142.6-142.6c0-78.7-64-142.6-142.6-142.6c-22.9,0-44.7,5.2-64.9,15.6
		c-2.8,1.5-6.3,0.3-7.8-2.5c-1.5-2.8-0.3-6.3,2.5-7.8c21.8-11.2,45.5-16.9,70.2-16.9c85,0,154.2,69.2,154.2,154.2
		C384.2,346.7,315,415.8,229.9,415.8z"/>
	<path class="st0" d="M228.5,160.9c-3.2,0-5.8-2.6-5.8-5.8v-41.4c0-3.2,2.6-5.8,5.8-5.8s5.8,2.6,5.8,5.8v41.4
		C234.3,158.3,231.7,160.9,228.5,160.9z"/>
	<path class="st0" d="M228.5,415.8c-3.2,0-5.8-2.6-5.8-5.8v-41.4c0-3.2,2.6-5.8,5.8-5.8s5.8,2.6,5.8,5.8V410
		C234.3,413.2,231.7,415.8,228.5,415.8z"/>
	<path class="st0" d="M331.3,372.2c-1.5,0-3-0.6-4.2-1.8l-28.8-29.7c-2.2-2.3-2.2-6,0.1-8.2c2.3-2.2,6-2.2,8.2,0.1l28.8,29.7
		c2.2,2.3,2.2,6-0.1,8.2C334.2,371.7,332.7,372.2,331.3,372.2z"/>
	<path class="st0" d="M308,195.4c-1.5,0-3-0.6-4.2-1.8c-2.2-2.3-2.2-6,0.1-8.2l29.7-28.8c2.3-2.2,6-2.2,8.2,0.1
		c2.2,2.3,2.2,6-0.1,8.2l-29.7,28.8C310.9,194.9,309.5,195.4,308,195.4z"/>
	<path class="st0" d="M376.2,268h-44.8c-3.2,0-5.8-2.6-5.8-5.8c0-3.2,2.6-5.8,5.8-5.8h44.8c3.2,0,5.8,2.6,5.8,5.8
		C382,265.4,379.4,268,376.2,268z"/>
	<path class="st0" d="M219.8,25.5h20.3v55h-20.3V25.5z"/>
	<path class="st0" d="M240.1,86.2h-20.3c-3.2,0-5.8-2.6-5.8-5.8v-55c0-3.2,2.6-5.8,5.8-5.8h20.3c3.2,0,5.8,2.6,5.8,5.8v55
		C245.9,83.6,243.3,86.2,240.1,86.2z M225.6,74.6h8.7V31.3h-8.7V74.6z"/>
	<path class="st0" d="M270.5,15.6c0,5.4-7.8,9.9-17.4,9.9h-46.2c-9.6,0-17.4-4.4-17.4-9.9c0-5.4,7.8-9.8,17.4-9.8H253
		C262.7,5.8,270.5,10.2,270.5,15.6z"/>
	<path class="st0" d="M253,31.3h-46.2c-13.2,0-23.2-6.7-23.2-15.7c0-8.9,10-15.6,23.2-15.6H253c13.2,0,23.2,6.7,23.2,15.6
		C276.3,24.5,266.3,31.3,253,31.3z M206.8,11.6c-7.5,0-11.5,3.1-11.6,4.1c0.2,0.9,4.2,4,11.6,4H253c7.5,0,11.5-3.1,11.6-4.1
		c-0.2-0.9-4.2-4-11.6-4H206.8z"/>
	<path class="st0" d="M386.9,83.3l14.6,14.2l-38.3,39.4l-14.6-14.2L386.9,83.3z"/>
	<path class="st0" d="M363.2,142.6c-1.5,0-2.9-0.5-4-1.6l-14.6-14.2c-1.1-1.1-1.7-2.5-1.8-4.1c0-1.5,0.6-3,1.6-4.1l38.3-39.4
		c2.2-2.3,5.9-2.3,8.2-0.1l14.6,14.2c1.1,1.1,1.7,2.5,1.8,4.1c0,1.5-0.6,3-1.6,4.1l-38.3,39.4C366.2,142,364.7,142.6,363.2,142.6z
		 M356.8,122.5l6.3,6.1l30.2-31.1l-6.3-6.1L356.8,122.5z"/>
	<path class="st0" d="M430.2,111.5c-3.8,3.9-12.5,1.6-19.4-5.1l-33.1-32.2c-6.9-6.7-9.4-15.3-5.6-19.2c3.8-3.9,12.5-1.6,19.4,5.1
		l33.1,32.2C431.4,99,433.9,107.6,430.2,111.5z"/>
	<path class="st0" d="M425,119.2c-5.9,0-12.7-3.2-18.3-8.6l-33.2-32.2c-4-3.9-7-8.6-8.4-13.2c-1.7-5.6-0.7-10.8,2.6-14.2
		c2.3-2.4,5.5-3.7,9.3-3.7c5.9,0,12.7,3.2,18.3,8.6l33.1,32.2c9.5,9.2,12,21,5.8,27.4C432,117.9,428.8,119.2,425,119.2z M377.1,58.9
		c-0.6,0-0.9,0.1-1,0.2c-0.5,0.8,0.2,5.8,5.5,11l33.1,32.2c3.8,3.7,7.9,5.4,10.2,5.4c0.6,0,0.9-0.1,1-0.2c0.5-0.8-0.2-5.8-5.6-11
		l-33.1-32.2C383.5,60.6,379.5,58.9,377.1,58.9z"/>
	<path class="st1" d="M229.9,449.1c-14.1,0-28.2-1.6-41.8-4.7c-3.1-0.7-5.1-3.8-4.4-6.9c0.7-3.1,3.8-5.1,6.9-4.4
		c12.8,2.9,26,4.4,39.2,4.4c96.9,0,175.7-78.8,175.7-175.7c0-96.9-78.8-175.7-175.7-175.7c-13.2,0-26.5,1.5-39.3,4.4
		c-3.1,0.7-6.2-1.2-6.9-4.4c-0.7-3.1,1.2-6.2,4.4-6.9c13.6-3.1,27.7-4.7,41.8-4.7c103.3,0,187.3,84,187.3,187.2
		C417.2,365.1,333.2,449.1,229.9,449.1z"/>
	<path class="st1" d="M229.9,267.7c-1.1,0-2.1-0.3-3-0.9c-1.7-1.1-2.8-2.9-2.8-4.9V180c0-3.2,2.6-5.8,5.8-5.8s5.8,2.6,5.8,5.8v72.5
		l42.8-21.4c2.9-1.4,6.3-0.3,7.8,2.6c1.4,2.9,0.3,6.3-2.6,7.8l-51.2,25.6C231.7,267.5,230.8,267.7,229.9,267.7z"/>
	<path class="st0" d="M139.4,149.4H87.6c-3.2,0-5.8-2.6-5.8-5.8s2.6-5.8,5.8-5.8h51.8c3.2,0,5.8,2.6,5.8,5.8
		S142.6,149.4,139.4,149.4z"/>
	<path class="st0" d="M152.6,416.4h-51.8c-3.2,0-5.8-2.6-5.8-5.8s2.6-5.8,5.8-5.8h51.8c3.2,0,5.8,2.6,5.8,5.8
		S155.8,416.4,152.6,416.4z"/>
	<path class="st0" d="M96.3,284.1H8.7c-3.2,0-5.8-2.6-5.8-5.8c0-3.2,2.6-5.8,5.8-5.8h87.6c3.2,0,5.8,2.6,5.8,5.8
		C102.1,281.5,99.5,284.1,96.3,284.1z"/>
	<path class="st0" d="M102.8,331.3H15.2c-3.2,0-5.8-2.6-5.8-5.8s2.6-5.8,5.8-5.8h87.6c3.2,0,5.8,2.6,5.8,5.8S106,331.3,102.8,331.3z
		"/>
	<path class="st0" d="M128.7,377.9H41.1c-3.2,0-5.8-2.6-5.8-5.8s2.6-5.8,5.8-5.8h87.6c3.2,0,5.8,2.6,5.8,5.8
		S131.9,377.9,128.7,377.9z"/>
	<path class="st0" d="M113.5,189.8H31.1c-3.2,0-5.8-2.6-5.8-5.8s2.6-5.8,5.8-5.8h82.5c3.2,0,5.8,2.6,5.8,5.8
		S116.7,189.8,113.5,189.8z"/>
	<path class="st0" d="M99.1,235.7H5.9c-3.2,0-5.8-2.6-5.8-5.8c0-3.2,2.6-5.8,5.8-5.8h93.2c3.2,0,5.8,2.6,5.8,5.8
		C104.9,233.1,102.3,235.7,99.1,235.7z"/>
</g>
</svg>
