<svg width="252" height="41" viewBox="0 0 252 41" fill="none" xmlns="http://www.w3.org/2000/svg">
<path d="M49.159 36.6404H40.4582C34.1186 36.6404 28.9805 31.5408 28.9805 25.2501C28.9805 22.1048 30.2659 19.258 32.3424 17.1955C34.4207 15.1347 37.2901 13.8598 40.4582 13.8598H54.0001V8.53313H10.676C8.60648 7.72103 6.96832 6.14923 6.17543 4.18972H54.0001C54.0001 1.97173 52.203 0.174637 49.985 0.174637H4.01508C1.79709 0.176383 0 1.97348 0 4.19146V38.1109C0 39.5622 1.18584 40.7376 2.64761 40.7376H51.3525C52.8143 40.7376 54.0001 39.5622 54.0001 38.1109V36.6404H49.159Z" fill="url(#paint0_linear_451_548)"/>
<path d="M58.3207 12.5255C58.3207 12.5255 58.3085 12.515 58.3033 12.5098C57.671 11.9335 57.0091 11.7029 56.6651 11.6086C56.6791 11.8444 56.6983 12.1832 56.7053 12.5919C56.7367 14.0746 56.7437 14.8326 56.4119 15.6202C56.2512 16.0009 56.0172 16.4236 55.5055 16.7816C54.9152 17.1955 54.2917 17.2584 54 17.2427H40.5926C35.9942 17.2427 32.2655 20.9713 32.2655 25.5697C32.2655 30.1681 35.9942 33.8968 40.5926 33.8968H51.3524C53.5477 33.8968 55.6539 32.9869 57.1209 31.3539C57.1331 31.3417 57.1436 31.3277 57.1558 31.3155L57.1681 31.3015C58.5617 29.7332 59.3267 27.7056 59.3267 25.6081V14.871C59.3267 13.9838 58.9722 13.1263 58.3207 12.5273V12.5255ZM40.7882 26.1792C40.6502 27.5676 39.529 28.6889 38.1405 28.8268C36.2649 29.012 34.7018 27.4489 34.8869 25.5732C35.0249 24.1848 36.1461 23.0636 37.5345 22.9256C39.4102 22.7405 40.9733 24.3035 40.7882 26.1792Z" fill="url(#paint1_linear_451_548)"/>
<path d="M64.2168 27.1642L67.8581 22.4995C69.9032 24.6266 72.5631 25.8544 75.3853 25.8544C78.2076 25.8544 79.7217 24.5446 79.7217 22.6636C79.7217 18.205 67.3255 18.9402 67.3255 10.1451C67.3255 5.97285 70.5162 1.43034 77.6767 1.43034C81.5223 1.43034 85.1637 2.78035 87.6174 5.02977L84.018 9.57053C81.9729 7.72977 79.7637 6.87052 77.5544 6.87052C74.8946 6.87052 73.4223 8.30261 73.4223 10.0211C73.4223 14.3575 85.8186 13.6625 85.8186 22.4995C85.8186 26.7957 82.7501 31.2946 75.2229 31.2946C71.1729 31.2946 67.081 29.9446 64.2185 27.1625L64.2168 27.1642Z" fill="url(#paint2_linear_451_548)"/>
<path d="M103.531 10.4315H109.954L98.0086 33.5457C95.3907 38.7012 93.1815 40.9105 88.9673 40.9105C87.371 40.9105 85.7346 40.4599 84.5907 39.7246L86.5537 35.1839C87.413 35.5524 88.0679 35.6746 88.6809 35.6746C90.071 35.6746 91.2988 34.8556 92.4445 32.5241L93.0173 31.4203L88.4765 10.4333H94.2852L96.7407 24.9969L103.533 10.4333L103.531 10.4315Z" fill="url(#paint3_linear_451_548)"/>
<path d="M108.482 27.9414L111.428 24.218C113.229 25.6902 115.478 26.5495 117.483 26.5495C119.488 26.5495 120.43 25.8945 120.43 24.7908C120.43 21.8445 110.569 22.95 110.569 16.2402C110.569 12.2304 114.375 10.0211 118.791 10.0211C121.818 10.0211 124.682 10.8804 127.178 12.7211L124.232 16.4847C122.513 15.2168 120.468 14.5619 118.914 14.5619C117.237 14.5619 116.336 15.2989 116.336 16.1983C116.336 19.1847 126.155 18.1613 126.155 24.789C126.155 28.7989 122.8 31.0902 117.686 31.0902C114.373 31.0902 110.894 30.0668 108.48 27.9396L108.482 27.9414Z" fill="url(#paint4_linear_451_548)"/>
<path d="M130.409 17.4278C130.409 9.5321 136.628 1.43208 146.364 1.43208C151.6 1.43208 156.265 3.96792 158.556 8.30435L153.729 11.5772C152.257 8.87718 149.515 7.15868 145.916 7.15868C139.943 7.15868 136.424 12.4364 136.424 17.4278C136.424 22.4191 139.656 25.5697 144.524 25.5697C147.346 25.5697 149.801 24.2599 151.888 21.642L156.103 25.3654C153.362 28.8425 149.517 31.298 144.075 31.298C136.752 31.298 130.411 26.0622 130.411 17.4295L130.409 17.4278Z" fill="url(#paint5_linear_451_548)"/>
<path d="M159.045 30.6833L162.236 10.4315H168.045L167.594 13.2957C169.435 11.0463 171.684 10.0229 174.426 10.0229C174.713 10.0229 174.917 10.0229 175.245 10.063L174.304 15.7495C173.813 15.6674 173.404 15.6674 172.994 15.6674C169.599 15.6674 166.817 17.9168 166.162 22.2532L164.852 30.6816H159.043L159.045 30.6833Z" fill="url(#paint6_linear_451_548)"/>
<path d="M195.784 22.4191H181.014C181.547 25.2414 183.674 26.511 186.128 26.511C187.928 26.511 189.4 25.7339 190.546 24.466L193.983 27.5746C191.814 30.1105 188.992 31.0937 185.719 31.0937C180.032 31.0937 175.328 27.4943 175.328 21.1529C175.328 15.1801 179.46 10.0246 186.536 10.0246C191.936 10.0246 196.068 13.3795 196.068 19.5165C196.068 20.5399 195.946 21.3573 195.782 22.4209L195.784 22.4191ZM181.178 18.6957H190.67C190.384 16.1179 188.707 14.6038 186.334 14.6038C183.716 14.6038 181.875 16.2402 181.178 18.6957Z" fill="url(#paint7_linear_451_548)"/>
<path d="M198.566 21.642C198.566 14.9321 203.024 10.0229 209.161 10.0229C212.148 10.0229 214.479 11.3729 215.871 13.1734L217.998 0H223.767L218.898 30.6833H213.211L213.498 28.6382C212.026 30.1524 209.939 31.0937 207.321 31.0937C202.207 31.0937 198.566 27.2079 198.566 21.6437V21.642ZM214.726 20.0055C214.726 17.0593 212.803 15.0561 209.98 15.0561C206.667 15.0561 204.294 17.7963 204.294 21.029C204.294 23.9333 206.177 26.0203 209.121 26.0203C212.272 26.0203 214.726 23.6067 214.726 20.0073V20.0055Z" fill="url(#paint8_linear_451_548)"/>
<path d="M224.052 30.6833L227.242 10.4315H233.051L229.86 30.6833H224.052ZM227.651 4.13209C227.651 2.04509 229.452 0.490753 231.415 0.490753C233.255 0.490753 234.647 1.88092 234.647 3.64134C234.647 5.72834 232.807 7.28268 230.884 7.28268C228.961 7.28268 227.651 5.93268 227.651 4.13209Z" fill="url(#paint9_linear_451_548)"/>
<path d="M238.248 22.8679L239.476 15.2989H235.957L236.734 10.4298H240.211L241.153 4.49709H246.961L246.02 10.4298H251.38L250.643 15.2989H245.243L244.057 22.7439C243.73 24.8711 244.59 26.139 246.757 26.139C247.248 26.139 247.903 26.057 248.475 25.8526L248.353 30.6798C247.454 30.926 246.471 31.0885 245.327 31.0885C240.213 31.0885 237.471 27.8156 238.248 22.8662V22.8679Z" fill="url(#paint10_linear_451_548)"/>
<defs>
<linearGradient id="paint0_linear_451_548" x1="-9.22822" y1="19.6912" x2="49.117" y2="20.9486" gradientUnits="userSpaceOnUse">
<stop stop-color="#061F60"/>
<stop offset="1" stop-color="#002D91"/>
</linearGradient>
<linearGradient id="paint1_linear_451_548" x1="-9.26847" y1="21.504" x2="49.0768" y2="22.7614" gradientUnits="userSpaceOnUse">
<stop stop-color="#061F60"/>
<stop offset="1" stop-color="#002D91"/>
</linearGradient>
<linearGradient id="paint2_linear_451_548" x1="55.2104" y1="16.5406" x2="281.173" y2="14.6544" gradientUnits="userSpaceOnUse">
<stop stop-color="#061F60"/>
<stop offset="1" stop-color="#002D91"/>
</linearGradient>
<linearGradient id="paint3_linear_451_548" x1="55.2888" y1="25.9504" x2="281.251" y2="24.0643" gradientUnits="userSpaceOnUse">
<stop stop-color="#061F60"/>
<stop offset="1" stop-color="#002D91"/>
</linearGradient>
<linearGradient id="paint4_linear_451_548" x1="55.2488" y1="21.0831" x2="281.211" y2="19.1969" gradientUnits="userSpaceOnUse">
<stop stop-color="#061F60"/>
<stop offset="1" stop-color="#002D91"/>
</linearGradient>
<linearGradient id="paint5_linear_451_548" x1="55.2156" y1="17.1152" x2="281.178" y2="15.229" gradientUnits="userSpaceOnUse">
<stop stop-color="#061F60"/>
<stop offset="1" stop-color="#002D91"/>
</linearGradient>
<linearGradient id="paint6_linear_451_548" x1="55.2504" y1="21.3066" x2="281.213" y2="19.4205" gradientUnits="userSpaceOnUse">
<stop stop-color="#061F60"/>
<stop offset="1" stop-color="#002D91"/>
</linearGradient>
<linearGradient id="paint7_linear_451_548" x1="55.2541" y1="21.6489" x2="281.216" y2="19.7628" gradientUnits="userSpaceOnUse">
<stop stop-color="#061F60"/>
<stop offset="1" stop-color="#002D91"/>
</linearGradient>
<linearGradient id="paint8_linear_451_548" x1="55.214" y1="16.8602" x2="281.176" y2="14.974" gradientUnits="userSpaceOnUse">
<stop stop-color="#061F60"/>
<stop offset="1" stop-color="#002D91"/>
</linearGradient>
<linearGradient id="paint9_linear_451_548" x1="55.2156" y1="17.0506" x2="281.178" y2="15.1644" gradientUnits="userSpaceOnUse">
<stop stop-color="#061F60"/>
<stop offset="1" stop-color="#002D91"/>
</linearGradient>
<linearGradient id="paint10_linear_451_548" x1="55.2348" y1="19.3646" x2="281.197" y2="17.4784" gradientUnits="userSpaceOnUse">
<stop stop-color="#061F60"/>
<stop offset="1" stop-color="#002D91"/>
</linearGradient>
</defs>
</svg>
