<?xml version="1.0" encoding="utf-8"?>
<!-- Generator: Adobe Illustrator 28.1.0, SVG Export Plug-In . SVG Version: 6.00 Build 0)  -->
<svg version="1.1" id="Capa_1" xmlns="http://www.w3.org/2000/svg" xmlns:xlink="http://www.w3.org/1999/xlink" x="0px" y="0px"
	 viewBox="0 0 450 450" style="enable-background:new 0 0 450 450;" xml:space="preserve">
<style type="text/css">
	.st0{fill:#5F9DEF;}
	.st1{fill:#05409F;}
	.st2{fill:#2D81F1;}
	.st3{fill:#042757;}
</style>
<g>
	<path class="st0" d="M188.6,234.3l36.1,24.1l36.1-24.1v-35.6l-36.1-24.1l-36.1,24.1V234.3z M224.7,274.2c-1.4,0-2.8-0.4-4-1.2
		l-43.3-28.9c-2-1.3-3.2-3.6-3.2-6v-43.3c0-2.4,1.2-4.7,3.2-6l43.3-28.9c2.4-1.6,5.6-1.6,8,0l43.3,28.9c2,1.3,3.2,3.6,3.2,6v43.3
		c0,2.4-1.2,4.7-3.2,6L228.7,273C227.5,273.8,226.1,274.2,224.7,274.2"/>
	<path class="st1" d="M275.2,234.3l36.1,24.1l36.1-24.1v-35.6l-36.1-24.1l-36.1,24.1V234.3z M311.2,274.2c-1.4,0-2.8-0.4-4-1.2
		L264,244.2c-2-1.3-3.2-3.6-3.2-6v-43.3c0-2.4,1.2-4.7,3.2-6l43.3-28.9c2.4-1.6,5.6-1.6,8,0l43.3,28.9c2,1.3,3.2,3.6,3.2,6v43.3
		c0,2.4-1.2,4.7-3.2,6L315.3,273C314,273.8,312.7,274.2,311.2,274.2"/>
	<path class="st0" d="M231.9,306.5l36.1,24.1l36.1-24.1v-35.6L268,246.8l-36.1,24.1V306.5z M268,346.4c-1.4,0-2.8-0.4-4-1.2
		l-43.3-28.9c-2-1.3-3.2-3.6-3.2-6V267c0-2.4,1.2-4.7,3.2-6l43.3-28.9c2.4-1.6,5.6-1.6,8,0l43.3,28.9c2,1.3,3.2,3.6,3.2,6v43.3
		c0,2.4-1.2,4.7-3.2,6L272,345.2C270.7,346,269.4,346.4,268,346.4"/>
	<path class="st2" d="M275.2,378.6l36.1,24.1l36.1-24.1V343L311.2,319L275.2,343V378.6z M311.2,418.6c-1.4,0-2.8-0.4-4-1.2
		L264,388.5c-2-1.3-3.2-3.6-3.2-6v-43.3c0-2.4,1.2-4.7,3.2-6l43.3-28.9c2.4-1.6,5.6-1.6,8,0l43.3,28.9c2,1.3,3.2,3.6,3.2,6v43.3
		c0,2.4-1.2,4.7-3.2,6l-43.3,28.9C314,418.1,312.7,418.6,311.2,418.6"/>
	<path class="st0" d="M311.2,433c-4,0-7.2-3.2-7.2-7.2v-10.6L264,388.5c-3.3-2.2-4.2-6.7-2-10c2.2-3.3,6.7-4.2,10-2l43.3,28.9
		c2,1.3,3.2,3.6,3.2,6v14.4C318.5,429.8,315.2,433,311.2,433"/>
	<path class="st2" d="M318.5,162.2l36.1,24.1l36.1-24.1v-35.6l-36.1-24.1l-36.1,24.1V162.2z M354.5,202.1c-1.4,0-2.8-0.4-4-1.2
		L307.2,172c-2-1.3-3.2-3.6-3.2-6v-43.3c0-2.4,1.2-4.7,3.2-6l43.3-28.9c2.4-1.6,5.6-1.6,8,0l43.3,28.9c2,1.3,3.2,3.6,3.2,6V166
		c0,2.4-1.2,4.7-3.2,6l-43.3,28.9C357.3,201.7,355.9,202.1,354.5,202.1"/>
	<path class="st0" d="M397.8,274.2c-1.4,0-2.8-0.4-4-1.2l-43.3-28.9c-2-1.3-3.2-3.6-3.2-6v-43.3c0-2.4,1.2-4.7,3.2-6l43.3-28.9
		c2.4-1.6,5.6-1.6,8,0l43.3,28.9c3.3,2.2,4.2,6.7,2,10c-2.2,3.3-6.7,4.2-10,2l-39.3-26.2l-36.1,24.1v35.6l40.1,26.7
		c3.3,2.2,4.2,6.7,2,10C402.4,273.1,400.2,274.2,397.8,274.2"/>
	<path class="st0" d="M397.8,129.9c-1.4,0-2.8-0.4-4-1.2l-43.3-28.9c-2-1.3-3.2-3.6-3.2-6V50.6c0-4,3.2-7.2,7.2-7.2
		c4,0,7.2,3.2,7.2,7.2V90l36.1,24.1l39.3-26.2c3.3-2.2,7.8-1.3,10,2c2.2,3.3,1.3,7.8-2,10l-43.3,28.9
		C400.6,129.5,399.2,129.9,397.8,129.9"/>
	<path class="st0" d="M145.3,162.2l36.1,24.1l36.1-24.1v-35.6l-36.1-24.1l-36.1,24.1V162.2z M181.4,202.1c-1.4,0-2.8-0.4-4-1.2
		L134.1,172c-2-1.3-3.2-3.6-3.2-6v-43.3c0-2.4,1.2-4.7,3.2-6l43.3-28.9c2.4-1.6,5.6-1.6,8,0l43.3,28.9c2,1.3,3.2,3.6,3.2,6V166
		c0,2.4-1.2,4.7-3.2,6l-43.3,28.9C184.2,201.7,182.8,202.1,181.4,202.1"/>
	<path class="st2" d="M102,234.3l36.1,24.1l36.1-24.1v-35.6l-36.1-24.1L102,198.7V234.3z M138.1,274.2c-1.4,0-2.8-0.4-4-1.2
		l-43.3-28.9c-2-1.3-3.2-3.6-3.2-6v-43.3c0-2.4,1.2-4.7,3.2-6l43.3-28.9c2.4-1.6,5.6-1.6,8,0l43.3,28.9c2,1.3,3.2,3.6,3.2,6v43.3
		c0,2.4-1.2,4.7-3.2,6L142.1,273C140.9,273.8,139.5,274.2,138.1,274.2"/>
	<path class="st0" d="M94.8,57.8c-1.4,0-2.8-0.4-4-1.2L47.5,27.7c-2-1.3-3.2-3.6-3.2-6V7.3c0-4,3.2-7.2,7.2-7.2s7.2,3.2,7.2,7.2
		v10.6l36.1,24.1l36.1-24.1V7.3c0-4,3.2-7.2,7.2-7.2s7.2,3.2,7.2,7.2v14.4c0,2.4-1.2,4.7-3.2,6L98.8,56.6
		C97.6,57.4,96.2,57.8,94.8,57.8"/>
	<path class="st0" d="M51.5,129.9c-2.3,0-4.6-1.1-6-3.2c-2.2-3.3-1.3-7.8,2-10L87.6,90V54.4L51.5,30.4L12.2,56.6
		c-3.3,2.2-7.8,1.3-10-2c-2.2-3.3-1.3-7.8,2-10l43.3-28.9c2.4-1.6,5.6-1.6,8,0l43.3,28.9c2,1.3,3.2,3.6,3.2,6v43.3
		c0,2.4-1.2,4.7-3.2,6l-43.3,28.9C54.3,129.6,52.9,129.9,51.5,129.9"/>
	<path class="st1" d="M58.7,306.5l36.1,24.1l36.1-24.1v-35.6l-36.1-24.1l-36.1,24.1V306.5z M94.8,346.4c-1.4,0-2.8-0.4-4-1.2
		l-43.3-28.9c-2-1.3-3.2-3.6-3.2-6V267c0-2.4,1.2-4.7,3.2-6l43.3-28.9c2.4-1.6,5.6-1.6,8,0l43.3,28.9c2,1.3,3.2,3.6,3.2,6v43.3
		c0,2.4-1.2,4.7-3.2,6l-43.3,28.9C97.6,346,96.2,346.4,94.8,346.4"/>
	<path class="st0" d="M94.8,389.7c-4,0-7.2-3.2-7.2-7.2V343L51.5,319l-39.3,26.2c-3.3,2.2-7.8,1.3-10-2c-2.2-3.3-1.3-7.8,2-10
		l43.3-28.9c2.4-1.6,5.6-1.6,8,0l43.3,28.9c2,1.3,3.2,3.6,3.2,6v43.3C102,386.5,98.8,389.7,94.8,389.7"/>
	<path class="st1" d="M102,90l36.1,24.1L174.2,90V54.4l-36.1-24.1L102,54.4V90z M138.1,129.9c-1.4,0-2.8-0.4-4-1.2L90.8,99.9
		c-2-1.3-3.2-3.6-3.2-6V50.6c0-2.4,1.2-4.7,3.2-6l43.3-28.9c2.4-1.6,5.6-1.6,8,0l43.3,28.9c2,1.3,3.2,3.6,3.2,6v43.3
		c0,2.4-1.2,4.7-3.2,6l-43.3,28.9C140.9,129.5,139.5,129.9,138.1,129.9"/>
	<path class="st3" d="M347.3,378.6l-36.1,24.1l-36.1-24.1V343l36.1-24.1l36.1,24.1V378.6z M231.9,270.9l36.1-24.1l36.1,24.1v35.6
		L268,330.5l-36.1-24.1V270.9z M188.6,198.7l36.1-24.1l36.1,24.1v35.6l-36.1,24.1l-36.1-24.1V198.7z M130.9,306.5l-36.1,24.1
		l-36.1-24.1v-35.6l36.1-24.1l36.1,24.1V306.5z M102,198.7l36.1-24.1l36.1,24.1v35.6l-36.1,24.1L102,234.3V198.7z M102,54.4
		l36.1-24.1l36.1,24.1V90l-36.1,24.1L102,90V54.4z M217.5,162.2l-36.1,24.1l-36.1-24.1v-35.6l36.1-24.1l36.1,24.1V162.2z
		 M347.3,234.3l-36.1,24.1l-36.1-24.1v-35.6l36.1-24.1l36.1,24.1V234.3z M318.5,126.6l36.1-24.1l36.1,24.1v35.6l-36.1,24.1
		l-36.1-24.1V126.6z M405.1,126.6l40.1-26.7c3.3-2.2,4.2-6.7,2-10c-2.2-3.3-6.7-4.2-10-2l-39.3,26.2L361.8,90V50.6
		c0-4-3.2-7.2-7.2-7.2c-4,0-7.2,3.2-7.2,7.2V90l-40.1,26.7c-2,1.3-3.2,3.6-3.2,6v39.4L268,186.2l-36.1-24.1v-39.4
		c0-2.4-1.2-4.7-3.2-6L188.6,90V50.6c0-2.4-1.2-4.7-3.2-6l-40.1-26.7V7.3c0-4-3.2-7.2-7.2-7.2s-7.2,3.2-7.2,7.2v10.6L94.8,41.9
		L58.7,17.8V7.3c0-4-3.2-7.2-7.2-7.2s-7.2,3.2-7.2,7.2v10.6L4.2,44.6c-3.3,2.2-4.2,6.7-2,10c2.2,3.3,6.7,4.2,10,2l39.3-26.2
		l36.1,24.1V90l-40.1,26.7c-3.3,2.2-4.2,6.7-2,10c2.2,3.3,6.7,4.2,10,2l39.3-26.2l36.1,24.1v35.6l-40.1,26.7c-2,1.3-3.2,3.6-3.2,6
		v39.4L47.5,261c-2,1.3-3.2,3.6-3.2,6v39.4L4.2,333.2c-3.3,2.2-4.2,6.7-2,10c2.2,3.3,6.7,4.2,10,2L51.5,319L87.6,343v39.4
		c0,4,3.2,7.2,7.2,7.2c4,0,7.2-3.2,7.2-7.2V343l40.1-26.7c2-1.3,3.2-3.6,3.2-6v-39.4l36.1-24.1l36.1,24.1v39.4c0,2.4,1.2,4.7,3.2,6
		l40.1,26.7v39.4c0,2.4,1.2,4.7,3.2,6l40.1,26.7v10.6c0,4,3.2,7.2,7.2,7.2c4,0,7.2-3.2,7.2-7.2v-10.6l40.1-26.7c2-1.3,3.2-3.6,3.2-6
		v-43.3c0-2.4-1.2-4.7-3.2-6l-40.1-26.7v-35.6l36.1-24.1l39.3,26.2c3.3,2.2,7.8,1.3,10-2c2.2-3.3,1.3-7.8-2-10l-40.1-26.7v-35.6
		l36.1-24.1l39.3,26.2c3.3,2.2,7.8,1.3,10-2c2.2-3.3,1.3-7.8-2-10l-40.1-26.7V126.6"/>
	<path class="st1" d="M275.2,234.3l36.1,24.1l36.1-24.1v-35.6l-36.1-24.1l-36.1,24.1V234.3z M311.2,274.2c-1.4,0-2.8-0.4-4-1.2
		L264,244.2c-2-1.3-3.2-3.6-3.2-6v-43.3c0-2.4,1.2-4.7,3.2-6l43.3-28.9c2.4-1.6,5.6-1.6,8,0l43.3,28.9c2,1.3,3.2,3.6,3.2,6v43.3
		c0,2.4-1.2,4.7-3.2,6L315.3,273C314,273.8,312.7,274.2,311.2,274.2"/>
	<path class="st2" d="M275.2,378.6l36.1,24.1l36.1-24.1V343L311.2,319L275.2,343V378.6z M311.2,418.6c-1.4,0-2.8-0.4-4-1.2
		L264,388.5c-2-1.3-3.2-3.6-3.2-6v-43.3c0-2.4,1.2-4.7,3.2-6l43.3-28.9c2.4-1.6,5.6-1.6,8,0l43.3,28.9c2,1.3,3.2,3.6,3.2,6v43.3
		c0,2.4-1.2,4.7-3.2,6l-43.3,28.9C314,418.1,312.7,418.6,311.2,418.6"/>
	<path class="st2" d="M318.5,162.2l36.1,24.1l36.1-24.1v-35.6l-36.1-24.1l-36.1,24.1V162.2z M354.5,202.1c-1.4,0-2.8-0.4-4-1.2
		L307.2,172c-2-1.3-3.2-3.6-3.2-6v-43.3c0-2.4,1.2-4.7,3.2-6l43.3-28.9c2.4-1.6,5.6-1.6,8,0l43.3,28.9c2,1.3,3.2,3.6,3.2,6V166
		c0,2.4-1.2,4.7-3.2,6l-43.3,28.9C357.3,201.7,355.9,202.1,354.5,202.1"/>
	<path class="st2" d="M102,234.3l36.1,24.1l36.1-24.1v-35.6l-36.1-24.1L102,198.7V234.3z M138.1,274.2c-1.4,0-2.8-0.4-4-1.2
		l-43.3-28.9c-2-1.3-3.2-3.6-3.2-6v-43.3c0-2.4,1.2-4.7,3.2-6l43.3-28.9c2.4-1.6,5.6-1.6,8,0l43.3,28.9c2,1.3,3.2,3.6,3.2,6v43.3
		c0,2.4-1.2,4.7-3.2,6L142.1,273C140.9,273.8,139.5,274.2,138.1,274.2"/>
	<path class="st1" d="M58.7,306.5l36.1,24.1l36.1-24.1v-35.6l-36.1-24.1l-36.1,24.1V306.5z M94.8,346.4c-1.4,0-2.8-0.4-4-1.2
		l-43.3-28.9c-2-1.3-3.2-3.6-3.2-6V267c0-2.4,1.2-4.7,3.2-6l43.3-28.9c2.4-1.6,5.6-1.6,8,0l43.3,28.9c2,1.3,3.2,3.6,3.2,6v43.3
		c0,2.4-1.2,4.7-3.2,6l-43.3,28.9C97.6,346,96.2,346.4,94.8,346.4"/>
	<path class="st1" d="M102,90l36.1,24.1L174.2,90V54.4l-36.1-24.1L102,54.4V90z M138.1,129.9c-1.4,0-2.8-0.4-4-1.2L90.8,99.9
		c-2-1.3-3.2-3.6-3.2-6V50.6c0-2.4,1.2-4.7,3.2-6l43.3-28.9c2.4-1.6,5.6-1.6,8,0l43.3,28.9c2,1.3,3.2,3.6,3.2,6v43.3
		c0,2.4-1.2,4.7-3.2,6l-43.3,28.9C140.9,129.5,139.5,129.9,138.1,129.9"/>
</g>
</svg>
