<svg width="16" height="12" viewBox="0 0 16 12" fill="none" xmlns="http://www.w3.org/2000/svg">
<path d="M0.996094 1.2832C0.996094 1.02539 1.08203 0.810547 1.25391 0.638672C1.4401 0.466797 1.65495 0.380859 1.89844 0.380859H15.0898C15.3477 0.380859 15.5625 0.466797 15.7344 0.638672C15.9062 0.810547 15.9922 1.02539 15.9922 1.2832C15.9922 1.52669 15.9062 1.74154 15.7344 1.92773C15.5625 2.09961 15.3477 2.18555 15.0898 2.18555H1.89844C1.65495 2.18555 1.4401 2.09961 1.25391 1.92773C1.08203 1.74154 0.996094 1.52669 0.996094 1.2832ZM0.996094 10.8652C0.996094 10.6217 1.08203 10.4141 1.25391 10.2422C1.4401 10.0703 1.65495 9.98438 1.89844 9.98438H15.0898C15.3477 9.98438 15.5625 10.0703 15.7344 10.2422C15.9062 10.4141 15.9922 10.6217 15.9922 10.8652C15.9922 11.123 15.9062 11.3379 15.7344 11.5098C15.5625 11.6816 15.3477 11.7676 15.0898 11.7676H1.89844C1.65495 11.7676 1.4401 11.6816 1.25391 11.5098C1.08203 11.3379 0.996094 11.123 0.996094 10.8652ZM1.89844 5.17188C1.65495 5.17188 1.4401 5.26497 1.25391 5.45117C1.08203 5.62305 0.996094 5.83073 0.996094 6.07422C0.996094 6.31771 1.08203 6.53255 1.25391 6.71875C1.4401 6.89062 1.65495 6.97656 1.89844 6.97656H11.8027C12.0462 6.97656 12.2539 6.89062 12.4258 6.71875C12.612 6.53255 12.7051 6.31771 12.7051 6.07422C12.7051 5.83073 12.612 5.62305 12.4258 5.45117C12.2539 5.26497 12.0462 5.17188 11.8027 5.17188H1.89844Z" fill="#202020"/>
</svg>
