<svg width="22" height="23" viewBox="0 0 22 23" fill="none" xmlns="http://www.w3.org/2000/svg">
<g clip-path="url(#clip0_256_316)">
<path d="M11 22.5555C13.9174 22.5555 16.7153 21.3966 18.7782 19.3337C20.8411 17.2708 22 14.4729 22 11.5555C22 8.63816 20.8411 5.84027 18.7782 3.77737C16.7153 1.71447 13.9174 0.555542 11 0.555542C8.08262 0.555542 5.28473 1.71447 3.22183 3.77737C1.15893 5.84027 0 8.63816 0 11.5555C0 14.4729 1.15893 17.2708 3.22183 19.3337C5.28473 21.3966 8.08262 22.5555 11 22.5555ZM9.28125 14.993H10.3125V12.243H9.28125C8.70977 12.243 8.25 11.7833 8.25 11.2118C8.25 10.6403 8.70977 10.1805 9.28125 10.1805H11.3438C11.9152 10.1805 12.375 10.6403 12.375 11.2118V14.993H12.7188C13.2902 14.993 13.75 15.4528 13.75 16.0243C13.75 16.5958 13.2902 17.0555 12.7188 17.0555H9.28125C8.70977 17.0555 8.25 16.5958 8.25 16.0243C8.25 15.4528 8.70977 14.993 9.28125 14.993ZM11 6.05554C11.3647 6.05554 11.7144 6.20041 11.9723 6.45827C12.2301 6.71613 12.375 7.06587 12.375 7.43054C12.375 7.79521 12.2301 8.14495 11.9723 8.40281C11.7144 8.66068 11.3647 8.80554 11 8.80554C10.6353 8.80554 10.2856 8.66068 10.0277 8.40281C9.76987 8.14495 9.625 7.79521 9.625 7.43054C9.625 7.06587 9.76987 6.71613 10.0277 6.45827C10.2856 6.20041 10.6353 6.05554 11 6.05554Z" fill="white"/>
</g>
<defs>
<clipPath id="clip0_256_316">
<rect width="22" height="22" fill="white" transform="translate(0 0.555542)"/>
</clipPath>
</defs>
</svg>
