<svg width="22" height="20" viewBox="0 0 22 20" fill="none" xmlns="http://www.w3.org/2000/svg">
<path d="M5.76211 3.17539L0.485546 8.45195C0.176172 8.76133 0 9.18672 0 9.625C0 10.0633 0.176172 10.4887 0.485546 10.798L5.76211 16.0746C6.03711 16.3496 6.40664 16.5 6.79336 16.5C7.59688 16.5 8.25 15.8469 8.25 15.0434V12.375H13.75C14.5105 12.375 15.125 11.7605 15.125 11V8.25C15.125 7.48945 14.5105 6.875 13.75 6.875H8.25V4.20664C8.25 3.40312 7.59688 2.75 6.79336 2.75C6.40664 2.75 6.03711 2.90469 5.76211 3.17539ZM15.125 2.75H17.875C18.6355 2.75 19.25 3.36445 19.25 4.125V15.125C19.25 15.8855 18.6355 16.5 17.875 16.5H15.125C14.3645 16.5 13.75 17.1145 13.75 17.875C13.75 18.6355 14.3645 19.25 15.125 19.25H17.875C20.1523 19.25 22 17.4023 22 15.125V4.125C22 1.84766 20.1523 0 17.875 0H15.125C14.3645 0 13.75 0.614453 13.75 1.375C13.75 2.13555 14.3645 2.75 15.125 2.75Z" fill="white"/>
</svg>
