<svg width="20" height="18" viewBox="0 0 20 18" fill="none" xmlns="http://www.w3.org/2000/svg">
<path d="M10.4219 1.18445V1.53992C10.5312 1.55815 10.6315 1.58549 10.7227 1.62195C10.832 1.64018 10.9323 1.65841 11.0234 1.67664C11.2422 1.73132 11.4062 1.85893 11.5156 2.05945C11.625 2.24174 11.6523 2.44226 11.5977 2.66101C11.543 2.86153 11.4154 3.01648 11.2148 3.12585C11.0326 3.23523 10.832 3.26257 10.6133 3.20789C10.431 3.17143 10.2578 3.13497 10.0938 3.09851C9.92969 3.06205 9.77474 3.04382 9.62891 3.04382C9.5013 3.04382 9.38281 3.06205 9.27344 3.09851C9.16406 3.11674 9.0638 3.1532 8.97266 3.20789C8.9362 3.22611 8.90885 3.24434 8.89062 3.26257C8.8724 3.2808 8.86328 3.28992 8.86328 3.28992C8.86328 3.30815 8.85417 3.32638 8.83594 3.3446C8.83594 3.3446 8.83594 3.36283 8.83594 3.39929C8.83594 3.41752 8.84505 3.43575 8.86328 3.45398C8.88151 3.45398 8.90885 3.47221 8.94531 3.50867C9.03646 3.56335 9.15495 3.61804 9.30078 3.67273C9.46484 3.70919 9.64714 3.76388 9.84766 3.83679H9.875C10.0755 3.89148 10.2852 3.9644 10.5039 4.05554C10.7409 4.12846 10.9505 4.22872 11.1328 4.35632C11.3698 4.48393 11.5703 4.67533 11.7344 4.93054C11.9167 5.16752 12.0078 5.4683 12.0078 5.83289C12.026 6.2157 11.944 6.54382 11.7617 6.81726C11.5977 7.07247 11.388 7.2821 11.1328 7.44617C11.0234 7.51908 10.9049 7.58289 10.7773 7.63757C10.668 7.67403 10.5495 7.71049 10.4219 7.74695V8.07507C10.4219 8.29382 10.3398 8.48523 10.1758 8.64929C10.0299 8.79513 9.84766 8.86804 9.62891 8.86804C9.41016 8.86804 9.21875 8.79513 9.05469 8.64929C8.90885 8.48523 8.83594 8.29382 8.83594 8.07507V7.7196C8.67188 7.66492 8.51693 7.61934 8.37109 7.58289C8.24349 7.5282 8.11589 7.48263 7.98828 7.44617C7.95182 7.42794 7.91536 7.41882 7.87891 7.41882C7.84245 7.40059 7.8151 7.39148 7.79688 7.39148C7.57812 7.31856 7.42318 7.18184 7.33203 6.98132C7.24089 6.7808 7.22266 6.58028 7.27734 6.37976C7.35026 6.16101 7.48698 6.00606 7.6875 5.91492C7.88802 5.82377 8.08854 5.80554 8.28906 5.86023C8.34375 5.87846 8.38932 5.89669 8.42578 5.91492C8.46224 5.93315 8.4987 5.94226 8.53516 5.94226C8.75391 6.03341 8.95443 6.10632 9.13672 6.16101C9.31901 6.19747 9.49219 6.22481 9.65625 6.24304C9.78385 6.24304 9.90234 6.23393 10.0117 6.2157C10.1393 6.17924 10.2305 6.14278 10.2852 6.10632C10.3216 6.06986 10.349 6.05164 10.3672 6.05164C10.3854 6.03341 10.3945 6.01518 10.3945 5.99695C10.4128 5.97872 10.4219 5.96049 10.4219 5.94226C10.4219 5.92403 10.4219 5.89669 10.4219 5.86023C10.4219 5.842 10.4128 5.82377 10.3945 5.80554C10.3945 5.78731 10.3581 5.75085 10.2852 5.69617C10.194 5.64148 10.0755 5.58679 9.92969 5.5321C9.78385 5.47742 9.61068 5.42273 9.41016 5.36804L9.32812 5.3407C9.14583 5.28601 8.94531 5.22221 8.72656 5.14929C8.50781 5.07638 8.30729 4.98523 8.125 4.87585C7.90625 4.73002 7.70573 4.53861 7.52344 4.30164C7.34115 4.06466 7.25 3.76388 7.25 3.39929C7.25 3.01648 7.34115 2.69747 7.52344 2.44226C7.70573 2.18705 7.91536 1.98653 8.15234 1.8407C8.26172 1.76778 8.37109 1.71309 8.48047 1.67664C8.60807 1.62195 8.72656 1.58549 8.83594 1.56726V1.18445C8.83594 0.965698 8.90885 0.783407 9.05469 0.637573C9.21875 0.473511 9.41016 0.391479 9.62891 0.391479C9.84766 0.391479 10.0299 0.473511 10.1758 0.637573C10.3398 0.783407 10.4219 0.965698 10.4219 1.18445ZM18.9258 11.5477C19.1445 11.8394 19.2266 12.1675 19.1719 12.5321C19.1172 12.8967 18.944 13.1884 18.6523 13.4071L14.4414 16.4969C14.0586 16.7704 13.6393 16.9891 13.1836 17.1532C12.7279 17.299 12.2539 17.3719 11.7617 17.3719H1.15234C0.860677 17.3719 0.605469 17.2717 0.386719 17.0712C0.186198 16.8524 0.0859375 16.5972 0.0859375 16.3055V14.1727C0.0859375 13.8811 0.186198 13.635 0.386719 13.4344C0.605469 13.2339 0.860677 13.1337 1.15234 13.1337H2.38281L3.85938 11.9305C4.24219 11.6206 4.66146 11.3928 5.11719 11.2469C5.57292 11.0829 6.03776 11.0009 6.51172 11.0009H11.7617C12.0534 11.0009 12.2995 11.1102 12.5 11.329C12.7188 11.5295 12.8281 11.7756 12.8281 12.0673C12.8281 12.3589 12.7188 12.6141 12.5 12.8329C12.2995 13.0334 12.0534 13.1337 11.7617 13.1337H9.10938C8.96354 13.1337 8.83594 13.1884 8.72656 13.2977C8.61719 13.3889 8.5625 13.5074 8.5625 13.6532C8.5625 13.799 8.61719 13.9266 8.72656 14.036C8.83594 14.1272 8.96354 14.1727 9.10938 14.1727H13.1016L17.0664 11.2743C17.3581 11.0555 17.6862 10.9735 18.0508 11.0282C18.4154 11.0829 18.707 11.2561 18.9258 11.5477ZM6.51172 13.1337H6.48438C6.5026 13.1337 6.51172 13.1337 6.51172 13.1337Z" fill="white"/>
</svg>
