<svg width="15" height="12" viewBox="0 0 15 12" fill="none" xmlns="http://www.w3.org/2000/svg">
<path fill-rule="evenodd" clip-rule="evenodd" d="M0 0.9C0 0.402944 0.402944 0 0.9 0H14.1C14.5971 0 15 0.402944 15 0.9C15 1.39706 14.5971 1.8 14.1 1.8H0.9C0.402944 1.8 0 1.39706 0 0.9ZM0 10.5C0 10.0029 0.402944 9.6 0.9 9.6H14.1C14.5971 9.6 15 10.0029 15 10.5C15 10.9971 14.5971 11.4 14.1 11.4H0.9C0.402944 11.4 0 10.9971 0 10.5ZM0.9 4.8C0.402944 4.8 0 5.20294 0 5.7C0 6.19706 0.402944 6.6 0.9 6.6H10.8C11.2971 6.6 11.7 6.19706 11.7 5.7C11.7 5.20294 11.2971 4.8 10.8 4.8H0.9Z" fill="white" />
</svg>
