<svg width="75" height="75" viewBox="0 0 20 13" fill="none" xmlns="http://www.w3.org/2000/svg">
  <path d="M11.2969 3.0946C11.2969 2.967 11.3151 2.84851 11.3516 2.73914C11.4062 2.62976 11.4792 2.5295 11.5703 2.43835C11.6615 2.34721 11.7617 2.28341 11.8711 2.24695C11.9805 2.19226 12.0898 2.16492 12.1992 2.16492H18.2695C18.3971 2.16492 18.5156 2.19226 18.625 2.24695C18.7344 2.28341 18.8346 2.34721 18.9258 2.43835C18.9987 2.5295 19.0534 2.62976 19.0898 2.73914C19.1445 2.84851 19.1719 2.967 19.1719 3.0946C19.1719 3.22221 19.1445 3.3407 19.0898 3.45007C19.0534 3.55945 18.9987 3.65971 18.9258 3.75085C18.8346 3.842 18.7344 3.91492 18.625 3.9696C18.5156 4.00606 18.3971 4.02429 18.2695 4.02429H12.1992C12.0898 4.02429 11.9805 4.00606 11.8711 3.9696C11.7617 3.91492 11.6615 3.842 11.5703 3.75085C11.4792 3.65971 11.4062 3.55945 11.3516 3.45007C11.3151 3.3407 11.2969 3.22221 11.2969 3.0946ZM18.2695 5.85632H12.1992C12.0898 5.85632 11.9805 5.88367 11.8711 5.93835C11.7617 5.97481 11.6615 6.03861 11.5703 6.12976C11.4792 6.22091 11.4062 6.32117 11.3516 6.43054C11.3151 6.53992 11.2969 6.65841 11.2969 6.78601C11.2969 6.89539 11.3151 7.01388 11.3516 7.14148C11.4062 7.25085 11.4792 7.342 11.5703 7.41492C11.6615 7.50606 11.7617 7.57898 11.8711 7.63367C11.9805 7.67013 12.0898 7.68835 12.1992 7.68835H18.2695C18.3971 7.68835 18.5156 7.67013 18.625 7.63367C18.7344 7.57898 18.8346 7.50606 18.9258 7.41492C18.9987 7.342 19.0534 7.25085 19.0898 7.14148C19.1445 7.01388 19.1719 6.89539 19.1719 6.78601C19.1719 6.65841 19.1445 6.53992 19.0898 6.43054C19.0534 6.32117 18.9987 6.22091 18.9258 6.12976C18.8346 6.03861 18.7344 5.97481 18.625 5.93835C18.5156 5.88367 18.3971 5.85632 18.2695 5.85632ZM18.2695 9.54773H14.0312C13.9036 9.54773 13.7852 9.57507 13.6758 9.62976C13.5664 9.66622 13.4661 9.73002 13.375 9.82117C13.3021 9.89408 13.2383 9.99434 13.1836 10.1219C13.1471 10.2313 13.1289 10.3407 13.1289 10.4501C13.1289 10.5777 13.1471 10.6962 13.1836 10.8055C13.2383 10.9149 13.3021 11.0152 13.375 11.1063C13.4661 11.1975 13.5664 11.2704 13.6758 11.3251C13.7852 11.3615 13.9036 11.3798 14.0312 11.3798H18.2695C18.3971 11.3798 18.5156 11.3615 18.625 11.3251C18.7344 11.2704 18.8346 11.1975 18.9258 11.1063C18.9987 11.0152 19.0534 10.9149 19.0898 10.8055C19.1445 10.6962 19.1719 10.5777 19.1719 10.4501C19.1719 10.3407 19.1445 10.2313 19.0898 10.1219C19.0534 9.99434 18.9987 9.89408 18.9258 9.82117C18.8346 9.73002 18.7344 9.66622 18.625 9.62976C18.5156 9.57507 18.3971 9.54773 18.2695 9.54773ZM11.5703 11.4618C11.5885 11.5165 11.5977 11.5803 11.5977 11.6532C11.5977 11.7079 11.5977 11.7626 11.5977 11.8173C11.5977 11.8719 11.5794 11.9358 11.543 12.0087C11.5247 12.0634 11.5065 12.1089 11.4883 12.1454C11.4518 12.2001 11.4154 12.2548 11.3789 12.3094C11.3424 12.3459 11.2969 12.3824 11.2422 12.4188C11.1875 12.4553 11.1328 12.4917 11.0781 12.5282C11.0417 12.5464 10.987 12.5647 10.9141 12.5829C10.8594 12.6011 10.8047 12.6102 10.75 12.6102C10.6953 12.6102 10.6315 12.6102 10.5586 12.6102C10.5039 12.592 10.4492 12.5738 10.3945 12.5555C10.3398 12.5373 10.2852 12.51 10.2305 12.4735C10.1758 12.4553 10.1211 12.4279 10.0664 12.3915C10.0299 12.3368 10.0026 12.2912 9.98438 12.2548C9.94792 12.2001 9.91146 12.1454 9.875 12.0907C9.85677 12.036 9.83854 11.9813 9.82031 11.9266C9.60156 11.0699 9.10938 10.3589 8.34375 9.79382C7.59635 9.21049 6.76693 8.91882 5.85547 8.91882C4.94401 8.91882 4.10547 9.21049 3.33984 9.79382C2.59245 10.3589 2.10938 11.0699 1.89062 11.9266C1.8724 11.9813 1.84505 12.036 1.80859 12.0907C1.79036 12.1454 1.76302 12.2001 1.72656 12.2548C1.6901 12.2912 1.64453 12.3368 1.58984 12.3915C1.55339 12.4279 1.50781 12.4553 1.45312 12.4735C1.39844 12.51 1.34375 12.5373 1.28906 12.5555C1.23438 12.5738 1.17969 12.592 1.125 12.6102C1.07031 12.6102 1.00651 12.6102 0.933594 12.6102C0.878906 12.6102 0.824219 12.6011 0.769531 12.5829C0.714844 12.5647 0.660156 12.5464 0.605469 12.5282C0.550781 12.4917 0.496094 12.4553 0.441406 12.4188C0.404948 12.3824 0.359375 12.3459 0.304688 12.3094C0.268229 12.2548 0.240885 12.2001 0.222656 12.1454C0.186198 12.1089 0.158854 12.0634 0.140625 12.0087C0.122396 11.9358 0.113281 11.8719 0.113281 11.8173C0.0950521 11.7626 0.0859375 11.7079 0.0859375 11.6532C0.0859375 11.5803 0.0950521 11.5165 0.113281 11.4618C0.313802 10.6597 0.678385 9.93966 1.20703 9.30164C1.73568 8.66361 2.36458 8.1532 3.09375 7.77039C2.80208 7.49695 2.5651 7.18705 2.38281 6.8407C2.20052 6.49434 2.07292 6.12065 2 5.7196C1.90885 5.33679 1.88151 4.95398 1.91797 4.57117C1.95443 4.17013 2.04557 3.78731 2.19141 3.42273C2.35547 3.05815 2.55599 2.72091 2.79297 2.41101C3.04818 2.10111 3.33073 1.83679 3.64062 1.61804C3.96875 1.39929 4.3151 1.23523 4.67969 1.12585C5.0625 0.99825 5.45443 0.934448 5.85547 0.934448C6.23828 0.934448 6.61198 0.99825 6.97656 1.12585C7.35938 1.23523 7.71484 1.39929 8.04297 1.61804C8.37109 1.83679 8.65365 2.10111 8.89062 2.41101C9.14583 2.72091 9.34635 3.05815 9.49219 3.42273C9.63802 3.78731 9.72917 4.17013 9.76562 4.57117C9.80208 4.95398 9.78385 5.33679 9.71094 5.7196C9.63802 6.12065 9.5013 6.49434 9.30078 6.8407C9.11849 7.18705 8.89062 7.49695 8.61719 7.77039C9.32812 8.1532 9.94792 8.66361 10.4766 9.30164C11.0052 9.93966 11.3698 10.6597 11.5703 11.4618ZM5.85547 7.08679C6.05599 7.08679 6.25651 7.05945 6.45703 7.00476C6.65755 6.93184 6.84896 6.8407 7.03125 6.73132C7.19531 6.60372 7.34115 6.45789 7.46875 6.29382C7.61458 6.12976 7.72396 5.94747 7.79688 5.74695C7.88802 5.56466 7.94271 5.36414 7.96094 5.14539C7.97917 4.92664 7.97005 4.717 7.93359 4.51648C7.89714 4.31596 7.82422 4.12455 7.71484 3.94226C7.6237 3.74174 7.50521 3.56856 7.35938 3.42273C7.19531 3.2769 7.02214 3.15841 6.83984 3.06726C6.65755 2.95789 6.46615 2.87585 6.26562 2.82117C6.0651 2.78471 5.85547 2.77559 5.63672 2.79382C5.4362 2.81205 5.23568 2.86674 5.03516 2.95789C4.83464 3.0308 4.65234 3.14018 4.48828 3.28601C4.34245 3.41361 4.20573 3.56856 4.07812 3.75085C3.96875 3.91492 3.8776 4.10632 3.80469 4.32507C3.75 4.52559 3.72266 4.72611 3.72266 4.92664C3.72266 5.07247 3.73177 5.2183 3.75 5.36414C3.78646 5.49174 3.83203 5.61934 3.88672 5.74695C3.94141 5.89278 4.00521 6.02039 4.07812 6.12976C4.15104 6.23914 4.24219 6.34851 4.35156 6.45789C4.55208 6.65841 4.77995 6.81335 5.03516 6.92273C5.29036 7.0321 5.5638 7.08679 5.85547 7.08679Z" fill="white"/>
</svg>
