<svg width="20" height="20" viewBox="0 0 20 20" fill="none" xmlns="http://www.w3.org/2000/svg">
<path d="M0.851562 7.06335V14.5282C0.851562 14.9657 0.933594 15.3941 1.09766 15.8134C1.26172 16.2326 1.4987 16.5972 1.80859 16.9071C2.11849 17.217 2.46484 17.4631 2.84766 17.6454C3.2487 17.8094 3.66797 17.8915 4.10547 17.8915H9.62891C9.5013 17.7092 9.38281 17.5178 9.27344 17.3173C9.16406 17.1167 9.0638 16.9162 8.97266 16.7157H4.10547C3.83203 16.7157 3.55859 16.661 3.28516 16.5516C3.02995 16.424 2.80208 16.26 2.60156 16.0594C2.41927 15.8589 2.27344 15.6219 2.16406 15.3485C2.05469 15.0751 2 14.8016 2 14.5282V7.06335C1.81771 7.11804 1.6263 7.14539 1.42578 7.14539C1.22526 7.14539 1.03385 7.11804 0.851562 7.06335ZM17.668 3.7821V9.55164C17.4857 9.4058 17.2943 9.2782 17.0938 9.16882C16.9115 9.04122 16.7201 8.93184 16.5195 8.8407V3.7821C16.5195 3.49044 16.4648 3.217 16.3555 2.96179C16.2461 2.68835 16.0911 2.44226 15.8906 2.22351C15.6901 2.02299 15.4622 1.86804 15.207 1.75867C14.9518 1.64929 14.6875 1.5946 14.4141 1.5946H4.10547C3.88672 1.5946 3.67708 1.63106 3.47656 1.70398C3.29427 1.75867 3.11198 1.8407 2.92969 1.95007C2.76562 2.07768 2.61979 2.22351 2.49219 2.38757C2.36458 2.55164 2.25521 2.73393 2.16406 2.93445C1.98177 2.8433 1.79036 2.79773 1.58984 2.79773C1.38932 2.7795 1.1888 2.78861 0.988281 2.82507C1.07943 2.47872 1.22526 2.15971 1.42578 1.86804C1.6263 1.55815 1.8724 1.29382 2.16406 1.07507C2.4375 0.856323 2.73828 0.692261 3.06641 0.582886C3.41276 0.455282 3.75911 0.391479 4.10547 0.391479H14.4141C14.8333 0.391479 15.2435 0.482625 15.6445 0.664917C16.0456 0.828979 16.401 1.06596 16.7109 1.37585C17.0026 1.70398 17.2305 2.07768 17.3945 2.49695C17.5768 2.89799 17.668 3.32638 17.668 3.7821ZM6.01953 9.93445H10.3125C10.1302 10.1167 9.95703 10.3081 9.79297 10.5087C9.64714 10.7092 9.51042 10.9188 9.38281 11.1376H6.01953C5.92839 11.1376 5.84635 11.1285 5.77344 11.1102C5.71875 11.0738 5.66406 11.0282 5.60938 10.9735C5.55469 10.9006 5.50911 10.8277 5.47266 10.7548C5.45443 10.6818 5.44531 10.6089 5.44531 10.536C5.44531 10.4631 5.45443 10.3902 5.47266 10.3173C5.50911 10.2443 5.55469 10.1805 5.60938 10.1259C5.66406 10.0712 5.71875 10.0256 5.77344 9.98914C5.84635 9.95268 5.92839 9.93445 6.01953 9.93445ZM0.0859375 4.95789C0.0859375 5.15841 0.122396 5.3407 0.195312 5.50476C0.268229 5.66882 0.359375 5.81466 0.46875 5.94226C0.596354 6.08809 0.742188 6.19747 0.90625 6.27039C1.07031 6.32507 1.24349 6.35242 1.42578 6.35242C1.60807 6.35242 1.78125 6.32507 1.94531 6.27039C2.10938 6.19747 2.25521 6.08809 2.38281 5.94226C2.49219 5.81466 2.58333 5.66882 2.65625 5.50476C2.72917 5.3407 2.76562 5.15841 2.76562 4.95789C2.76562 4.77559 2.72917 4.60242 2.65625 4.43835C2.58333 4.27429 2.49219 4.11934 2.38281 3.97351C2.25521 3.84591 2.10938 3.75476 1.94531 3.70007C1.78125 3.62716 1.60807 3.5907 1.42578 3.5907C1.24349 3.5907 1.07031 3.62716 0.90625 3.70007C0.742188 3.75476 0.596354 3.84591 0.46875 3.97351C0.359375 4.11934 0.268229 4.27429 0.195312 4.43835C0.122396 4.60242 0.0859375 4.77559 0.0859375 4.95789ZM6.01953 6.76257C5.92839 6.76257 5.84635 6.7808 5.77344 6.81726C5.71875 6.83549 5.66406 6.87195 5.60938 6.92664C5.55469 6.98132 5.50911 7.04513 5.47266 7.11804C5.45443 7.19096 5.44531 7.27299 5.44531 7.36414C5.44531 7.43705 5.45443 7.50997 5.47266 7.58289C5.50911 7.6558 5.55469 7.7196 5.60938 7.77429C5.66406 7.82898 5.71875 7.87455 5.77344 7.91101C5.84635 7.94747 5.92839 7.9657 6.01953 7.9657H12.5C12.5729 7.9657 12.6458 7.94747 12.7188 7.91101C12.7917 7.87455 12.8555 7.82898 12.9102 7.77429C12.9648 7.7196 13.0013 7.6558 13.0195 7.58289C13.056 7.50997 13.0742 7.43705 13.0742 7.36414C13.0742 7.27299 13.056 7.19096 13.0195 7.11804C13.0013 7.04513 12.9648 6.98132 12.9102 6.92664C12.8555 6.87195 12.7917 6.83549 12.7188 6.81726C12.6458 6.7808 12.5729 6.76257 12.5 6.76257H6.01953ZM19.1719 14.3094C19.1719 15.0022 19.0443 15.6675 18.7891 16.3055C18.5521 16.9253 18.1966 17.4813 17.7227 17.9735C17.2669 18.4657 16.7292 18.8394 16.1094 19.0946C15.5078 19.3498 14.8789 19.4774 14.2227 19.4774C13.5664 19.4774 12.9284 19.3498 12.3086 19.0946C11.707 18.8394 11.1693 18.4657 10.6953 17.9735C10.2396 17.4813 9.88411 16.9253 9.62891 16.3055C9.3737 15.6675 9.24609 15.0022 9.24609 14.3094C9.24609 13.635 9.3737 12.9787 9.62891 12.3407C9.88411 11.7027 10.2396 11.1467 10.6953 10.6727C11.1693 10.1805 11.707 9.80684 12.3086 9.55164C12.9284 9.2782 13.5664 9.14148 14.2227 9.14148C14.8789 9.14148 15.5078 9.2782 16.1094 9.55164C16.7292 9.80684 17.2669 10.1805 17.7227 10.6727C18.1966 11.1467 18.5521 11.7027 18.7891 12.3407C19.0443 12.9787 19.1719 13.635 19.1719 14.3094ZM14.6055 11.1376C14.6055 11.0829 14.5964 11.0373 14.5781 11.0009C14.5599 10.9462 14.5326 10.9006 14.4961 10.8641C14.4596 10.8277 14.4141 10.8003 14.3594 10.7821C14.3229 10.7456 14.2773 10.7274 14.2227 10.7274C14.168 10.7274 14.1133 10.7456 14.0586 10.7821C14.0221 10.8003 13.9857 10.8277 13.9492 10.8641C13.9128 10.9006 13.8854 10.9462 13.8672 11.0009C13.849 11.0373 13.8398 11.0829 13.8398 11.1376V13.9266H11.1602C11.1055 13.9266 11.0508 13.9358 10.9961 13.954C10.9596 13.9722 10.9232 13.9996 10.8867 14.036C10.8503 14.0725 10.8229 14.118 10.8047 14.1727C10.7865 14.2092 10.7773 14.2548 10.7773 14.3094C10.7773 14.3641 10.7865 14.4188 10.8047 14.4735C10.8229 14.5282 10.8503 14.5738 10.8867 14.6102C10.9232 14.6467 10.9596 14.674 10.9961 14.6923C11.0508 14.7105 11.1055 14.7196 11.1602 14.7196H13.8398V17.5087C13.8398 17.5634 13.849 17.618 13.8672 17.6727C13.8854 17.7092 13.9128 17.7456 13.9492 17.7821C13.9857 17.8186 14.0221 17.8459 14.0586 17.8641C14.1133 17.8824 14.168 17.8915 14.2227 17.8915C14.2773 17.8915 14.3229 17.8824 14.3594 17.8641C14.4141 17.8459 14.4596 17.8186 14.4961 17.7821C14.5326 17.7456 14.5599 17.7092 14.5781 17.6727C14.5964 17.618 14.6055 17.5634 14.6055 17.5087V14.7196H17.2852C17.3216 14.7196 17.3581 14.7105 17.3945 14.6923C17.4492 14.674 17.4948 14.6467 17.5312 14.6102C17.5677 14.5738 17.5951 14.5282 17.6133 14.4735C17.6497 14.4188 17.668 14.3641 17.668 14.3094C17.668 14.2548 17.6497 14.2092 17.6133 14.1727C17.5951 14.118 17.5677 14.0725 17.5312 14.036C17.4948 13.9996 17.4492 13.9722 17.3945 13.954C17.3581 13.9358 17.3216 13.9266 17.2852 13.9266H14.6055V11.1376Z" fill="white"/>
</svg>
