<svg width="30" height="30" viewBox="0 0 15 15" fill="none" xmlns="http://www.w3.org/2000/svg">
<path d="M15 3.33333V13.3333C15 13.7917 14.8367 14.1842 14.51 14.5108C14.1833 14.8375 13.7911 15.0006 13.3333 15H1.66667C1.20833 15 0.815835 14.8367 0.489168 14.51C0.162501 14.1833 -0.000554141 13.7911 1.41483e-06 13.3333V1.66667C1.41483e-06 1.20833 0.163335 0.815834 0.490001 0.489168C0.816668 0.162501 1.20889 -0.000554141 1.66667 1.41483e-06H11.6667L15 3.33333ZM7.5 12.5C8.19445 12.5 8.78472 12.2569 9.27083 11.7708C9.75694 11.2847 10 10.6944 10 10C10 9.30556 9.75694 8.71528 9.27083 8.22917C8.78472 7.74306 8.19445 7.5 7.5 7.5C6.80556 7.5 6.21528 7.74306 5.72917 8.22917C5.24306 8.71528 5 9.30556 5 10C5 10.6944 5.24306 11.2847 5.72917 11.7708C6.21528 12.2569 6.80556 12.5 7.5 12.5ZM2.5 5.83333H10V2.5H2.5V5.83333Z" fill="white" />
</svg>
